<?xml version="1.0" encoding="UTF-8"?>
<svg id="Layer_1" data-name="Layer 1" xmlns="http://www.w3.org/2000/svg" xmlns:xlink="http://www.w3.org/1999/xlink" viewBox="0 0 438.27 357.28">
  <defs>
    <style>
      .cls-1 {
        fill: url(#linear-gradient);
      }

      .cls-2 {
        fill: #f29a77;
      }

      .cls-3 {
        fill: #eebc66;
      }

      .cls-4 {
        fill: #825421;
      }

      .cls-5 {
        fill: #68656c;
      }

      .cls-6 {
        fill: #804b38;
      }

      .cls-7 {
        fill: #94593f;
      }

      .cls-8 {
        fill: #8b3a2c;
      }

      .cls-9 {
        fill: #b54c3b;
      }

      .cls-10 {
        fill: #31212b;
      }

      .cls-11 {
        fill: #312830;
      }

      .cls-12 {
        fill: #93909b;
      }

      .cls-13 {
        fill: #b2816d;
      }

      .cls-14 {
        fill: #b34b3a;
      }

      .cls-15 {
        fill: #dda64f;
      }

      .cls-16 {
        fill: #d2cbc4;
      }

      .cls-17 {
        fill: #dd7c4e;
      }

      .cls-18 {
        fill: #c6974f;
      }

      .cls-19 {
        fill: #d85d4b;
      }

      .cls-20 {
        fill: #132129;
      }

      .cls-21 {
        fill: #124779;
      }

      .cls-22 {
        fill: #141214;
      }

      .cls-23 {
        fill: #172d56;
      }

      .cls-24 {
        fill: #a44738;
      }

      .cls-25 {
        fill: #722e21;
      }

      .cls-26 {
        fill: #973d2d;
      }

      .cls-27 {
        fill: #893a2b;
      }

      .cls-28 {
        fill: #705d6f;
      }

      .cls-29 {
        fill: #3c2a3a;
      }

      .cls-30 {
        fill: #613b31;
      }

      .cls-31 {
        fill: #5f4b55;
      }
    </style>
    <linearGradient id="linear-gradient" x1="219.13" y1="0" x2="219.13" y2="357.28" gradientUnits="userSpaceOnUse">
      <stop offset="0" stop-color="#fff"/>
      <stop offset=".16" stop-color="#f9fcfe"/>
      <stop offset=".35" stop-color="#e9f4fb"/>
      <stop offset=".57" stop-color="#d0e8f7"/>
      <stop offset=".81" stop-color="#acd6f1"/>
      <stop offset="1" stop-color="#89c5ec"/>
    </linearGradient>
  </defs>
  <rect class="cls-1" width="438.27" height="357.28"/>
  <g>
    <g>
      <path class="cls-3" d="M383.18,256.97c0,1.76-14.89,3.36-39.34,4.58-27.97,1.38-68.43,2.25-113.45,2.25h-.74c-3.69,0-7.37-.01-11.04-.03-71.83-.37-141.01-4-141-6.8,0-.56,4.49-1.16,13.47-2.37,5.63-.74,10.96-1.3,15.94-1.71h.02c8.3-.68,15.63-.95,21.78-1.02-.43-1.44-.85-2.89-1.21-4.35-.54-2.22-1.04-4.45-1.23-6.78-.04-.43,.47-.48,.56-.1,.53,2.14,.93,4.32,1.45,6.47,.15,.64,.32,1.28,.49,1.91-.02-.94-.04-1.88-.05-2.82-.02-2.45-.09-4.96,.21-7.4,.03-.26,.3-.16,.32,.05,.21,2.48,.11,5,.11,7.49,0,1.55,.02,3.12,.04,4.67,.32-1.17,.64-2.35,.97-3.52,.39-1.42,.76-2.84,1.26-4.21,.1-.26,.4-.07,.36,.19-.3,1.47-.72,2.86-1.11,4.28-.38,1.35-.75,2.71-1.13,4.06,26.86-1.06,62.01-1.69,100.53-1.69,7.62,0,15.11,.03,22.43,.07,1.53,.01,3.05,.02,4.57,.03-.15-.61-.3-1.23-.46-1.84-.06-.25-.13-.51-.21-.76-.28-1.08-.6-2.14-.95-3.18-.4-1.19-.9-2.39-1.17-3.65-.08-.32,.27-.62,.44-.34,.68,1.07,1.12,2.4,1.54,3.67,.41,1.26,.78,2.55,1.11,3.85,.05,.2,.1,.4,.14,.59,.03,.16,.06,.31,.1,.45-.01-.13-.01-.26-.02-.39-.22-4.09-.14-8.34,.67-12.26,.04-.23,.34-.19,.33,.06-.17,2.44-.41,4.87-.48,7.34-.04,1.6,0,3.18,.06,4.77,.41-1.63,.92-3.22,1.61-4.7,.1-.21,.34-.02,.25,.2-.63,1.72-1.17,3.5-1.59,5.33-.08,.29-.13,.56-.19,.85v.03c.41,0,.81,.01,1.21,.01,2.38,.02,4.72,.04,7.05,.07,5.82,.06,11.5,.14,17.03,.23-.15-1.44-.33-2.86-.57-4.27-.29-1.75-.74-3.48-.97-5.24-.04-.27,.25-.49,.37-.2,.65,1.65,.98,3.51,1.28,5.31,.24,1.46,.42,2.94,.57,4.42h.05c.25-3.2,.78-6.36,1.74-9.34,.08-.22,.34-.14,.29,.11-.64,2.93-1.14,5.9-1.4,8.92,1.75-3.58,3.64-7.07,5.8-10.25,.14-.2,.41,.07,.29,.3-1.87,3.41-3.76,6.8-5.54,10.3,17.19,.3,32.87,.74,46.39,1.28,17.43,.69,31.27,1.56,40.1,2.55,.01-.27,.01-.56,.02-.84,.09-2.68,.2-5.59,.89-8.15,.1-.34,.5-.3,.5,.08-.01,1.99-.28,3.97-.41,5.95-.02,.38-.04,.76-.06,1.14,1.35-3.35,2.95-6.6,4.92-9.37,.1-.13,.28,.05,.19,.2-1.91,3.45-3.73,6.91-5.2,10.71,0,.04,0,.08,0,.14,1-1.07,1.98-2.17,2.92-3.33,1.13-1.39,2.18-2.9,3.3-4.29,.16-.2,.45,.07,.32,.32-.94,1.61-2.06,3.04-3.18,4.43-.9,1.1-1.83,2.15-2.78,3.17,6.14,.74,9.51,1.53,9.51,2.37"/>
      <path class="cls-15" d="M218.61,263.77c-71.83-.37-141.01-4-141-6.8,0-.56,4.49-1.16,13.47-2.37,5.63-.74,10.96-1.3,15.94-1.71h.02c3.68,.48,7.07,.75,10.15,.87,.49,.2,1.01,.4,1.53,.59,3.7,1.33,7.05,1.94,9.67,2.22,.43-.11,1.2-.37,1.86-1.04,.57-.59,.89-1.31,1.03-1.95,3.88-.14,8.28-.28,13.92-.28,3,0,6.35,.04,10.17,.14,3.58,.1,5.92,.21,7.55,.32,0,.05,0,.09,.01,.14,1.11,.57,2.73,1.2,4.76,1.38,.39,.03,.76,.05,1.12,.05,.29,0,.56-.01,.83-.03,.34-.36,.67-.73,1.01-1.09h0c.29,.41,.57,.82,.86,1.23,2.09,.65,4.71,1.28,7.75,1.59,1.41,.14,2.75,.2,4.01,.2,2.03,0,3.84-.16,5.37-.37,.37-.2,1.01-.61,1.46-1.38,.06-.1,.12-.21,.16-.32,.68,.38,1.21,.86,1.55,1.45,.24,.42,.63,1.27,1.58,2.04,.73,.6,2,.94,5.22,.94,.1,0,.19,0,.29,0,.04,0,.08,0,.12,0,4.5,0,12.14,1.8,19.59,4.16"/>
      <path class="cls-3" d="M363.64,259.12c-10.11,.7-20.48,1.3-31.15,1.75-15.66,.67-31.94,1.03-48.76,1.02-13.5-.01-26.65-.27-39.4-.71-13.46-.48-26.51-1.17-39.1-2.06h-.01c.88-3.1,1.86-5.79,2.9-8.14-.11-.18-.17-.35-.1-.47,.07-.14,.22-.2,.42-.23,4.08-8.95,9.02-12.76,13.09-14.49,5.04-2.14,10.64-2.52,15.51-3.4-1.79-1.59-3.7-3.25-3.1-3.8,.54-.49,2.9,1.67,5.01,3.42,1.35-.32,2.61-.7,3.77-1.21-.07-2.8-.46-6.48,.36-6.69,.75-.2,1.92,2.2,3.06,4.45,.13-.14,.28-.26,.41-.4,1.04-1.15,1.76-2.75,2.02-5.02,1.3-10.64,7.19-13.18,19.62-11.24-.21-.94-.26-1.68,.09-2.02,.82-.85,3.39-.15,5.84,.54,2.36,.67,4.61,1.33,5.12,.63,.44-.57-5.42-7.84-3.75-9.75,.52-.59,2.69,.33,4.91,1.26,2.25,.94,4.56,1.88,5.24,1.23,1.26-1.18-3.11-9.34-1.7-10.34,1.07-.76,4.29,2.65,6.6,4.45,1.06-4.72,3.01-9.04,6.92-8.03,1.26,.32,3.44,.21,6.06,.1,7.33-.31,18.03-.62,21.09,8.54,.15,.06,.21,.33,.23,.7,.9,2.7,1.58,4.68,2.15,6.19,1.69-1.91,2.5,4.99,2.82,5.39,5.01,.32,6.1,.93,6.16,1.44,.1,.78-2.23,1.68-2.01,3.19,.02,.14,.02,.23,.09,.32,.47,.57,2.75-.14,5-.86,2.26-.72,4.5-1.44,4.87-.85,.63,1.04-6.83,5.74-5.88,8.14,.74,1.87,6.05,.96,6.42,2.47,.25,.97-1.76,2.31-3.42,3.26,2.23,2.06,4.9,4.23,8.06,6.34,1.74,1.16,3.41,2.16,5.02,3.04,.42,.25,.74,.52,.88,.88,3.43,3.98,6.63,13.71,8.67,20.97"/>
      <path class="cls-15" d="M230.39,263.8h-.74c1.01-1.2,2.01-2.23,2.98-3.1,3.86,.18,7.76,.33,11.69,.47,12.76,.45,25.9,.7,39.4,.71h.72c16.56,0,32.6-.36,48.04-1.02,2.93-.12,5.83-.26,8.72-.4,.81,.34,1.69,.7,2.64,1.08-27.97,1.38-68.43,2.25-113.45,2.25"/>
      <path class="cls-15" d="M284.44,261.89h-.72c-13.5-.01-26.65-.27-39.4-.71-3.93-.14-7.83-.3-11.69-.47,3.43-3.07,6.54-4.24,9.05-4.64,4.21-.68,8.12,.48,10.21-1.98,.93-1.08,1.01-2.52,.93-3.87-.12-1.84-.56-3.52,.35-3.97,.18-.09,.37-.13,.58-.13,.82,0,1.85,.65,2.97,1.54,.36,.29,.73,.6,1.11,.94,.02,.01,.05,.03,.07,.06,.28,.23,.56,.49,.85,.73,.34,.31,.68,.6,1.02,.89,1.54,1.31,3.07,2.42,4.31,2.42,.27,0,.53-.05,.77-.17,.69-.33,1.35-1.22,1.97-2.18,.93-1.44,1.76-3.02,2.4-3.1,.17-.01,.34-.01,.34-.01,.58,.2,1.03,.41,1.4,.61,1.01,.57,1.41,.75,1.59,.81,.06,.02,.13,.03,.2,.03,2.44,0,11.06-12.86,17.87-20.04,.59-.61,1.62-1.48,3.03-1.65,.15-.02,.3-.03,.44-.03,1.93,0,2.75,1.69,5.89,2.86,3.7,1.38,4.79-.12,7.25,1.6,1.45,.99,2.39,2.42,3.29,2.42,.09,0,.18-.02,.28-.05,.7-.25,.91-1.32,1.16-1.32,0,0,.01,0,.02,0,.37,.1-.32,2.15,.54,2.91,.22,.19,.51,.26,.82,.26,.4,0,.84-.11,1.26-.22,.42-.11,.82-.22,1.13-.22,.2,0,.36,.05,.47,.18,.48,.58-1.08,1.85-.91,3.42,.17,1.66,2.12,2.72,3.44,3.39,8.37,4.31,13.6,4.05,13.54,7.03,0,.33,0,.6-.03,.87-.03,.64-.05,1.25-.08,1.79-.09,1.6-.17,2.62-.18,2.76-.07,1.01,1.95,2.73,9.22,5.82-2.88,.14-5.79,.28-8.72,.4-15.44,.66-31.48,1.02-48.04,1.02"/>
      <path class="cls-4" d="M179.79,252.4h-.02c-1.62-.12-3.22-.43-4.75-.95-2.77-.93-5.28-2.46-7.44-4.54-.09-.08-.09-.22,0-.3,.04-.04,.1-.07,.15-.07s.11,.02,.15,.06c2.11,2.04,4.56,3.54,7.27,4.45,1.5,.5,3.06,.81,4.65,.92,.12,0,.21,.11,.2,.23,0,.11-.1,.2-.22,.2"/>
      <path class="cls-15" d="M237.32,253.55s-.1-.01-.14-.04l-13.87-8.45c-.13-.08-.16-.24-.09-.37,.05-.08,.14-.13,.23-.13,.05,0,.1,.01,.14,.04l13.87,8.45c.13,.08,.16,.24,.09,.37-.05,.08-.14,.13-.23,.13m0-2.32c-.07,0-.14-.03-.19-.08l-5.7-6.13c-.1-.11-.1-.28,.01-.38,.05-.05,.12-.07,.18-.07,.07,0,.14,.03,.2,.08l5.7,6.13c.1,.11,.1,.28-.01,.38-.05,.05-.12,.07-.18,.07m97.25-13.44c-.14,0-.25-.1-.27-.24-.02-.15,.09-.28,.24-.29l7.21-.76s.02,0,.03,0c.13,0,.24,.1,.26,.24,.02,.15-.09,.28-.23,.29l-7.21,.76h-.03m-2.09-1.86c-.06,0-.11-.02-.16-.06-.12-.09-.14-.26-.05-.37l4.17-5.34c.05-.07,.13-.1,.21-.1,.06,0,.11,.02,.16,.06,.12,.09,.14,.26,.05,.37l-4.17,5.34c-.05,.07-.13,.1-.21,.1m-3.62,0c-.13,0-.24-.1-.26-.23l-1.9-13.52c-.02-.15,.08-.28,.23-.3,.01,0,.03,0,.04,0,.13,0,.24,.1,.26,.23l1.9,13.52c.02,.15-.08,.28-.23,.3h-.04m-54.13,0c-.09,0-.17-.04-.22-.12-.09-.13-8.55-12.58-9.29-13.51-.09-.11-.07-.28,.04-.37,.05-.04,.11-.06,.16-.06,.08,0,.16,.03,.21,.1,.76,.95,8.97,13.03,9.32,13.54,.08,.12,.05,.29-.07,.37-.05,.03-.1,.05-.15,.05m1.14-2.51c-.14,0-.25-.1-.27-.24l-1.14-13.3c-.01-.15,.1-.28,.24-.29,0,0,.02,0,.02,0,.13,0,.25,.1,.27,.24l1.14,13.3c.01,.15-.1,.28-.24,.29h-.02m1.52-2.83h-.08c-.14-.05-.22-.2-.18-.34l2.66-8.94c.03-.12,.14-.19,.26-.19,.02,0,.05,0,.07,0,.14,.04,.22,.19,.18,.33l-2.66,8.94c-.03,.12-.14,.19-.26,.19m23.93-21.41c-.13,0-.24-.09-.26-.23l-1.33-8.8c-.02-.15,.08-.28,.23-.3,0,0,.02,0,.03,0,.13,0,.25,.09,.27,.23l1.33,8.8c.03,.15-.08,.28-.22,.3h-.04m5.7-1.96c-.05,0-.1-.02-.15-.05-.12-.08-.15-.25-.07-.37l3.99-5.7c.05-.07,.13-.11,.22-.11,.05,0,.11,.02,.15,.05,.12,.08,.15,.25,.07,.37l-3.99,5.7c-.05,.07-.13,.11-.22,.11m-3.04,0h-.06c-.14-.04-.23-.18-.2-.32l1.9-8.55c.03-.12,.14-.21,.26-.21,.02,0,.04,0,.06,0,.14,.03,.23,.17,.2,.32l-1.9,8.55c-.03,.12-.14,.21-.26,.21"/>
    </g>
    <g>
      <path class="cls-3" d="M29.07,258.8c.02-2.36,.03-4.72,.02-7.08,.22,.35,.44,.7,.64,1.05,.52,.88,1.01,1.79,1.47,2.7,.1,.68,.2,1.37,.3,2.05,.06,.38,.52,.32,.67,.04,.13,.29,.28,.58,.41,.88-1.26,.12-2.43,.23-3.51,.36h0Zm1.17-9.84c.17,1.13,.33,2.25,.5,3.37h0c-.51-.93-1.07-1.83-1.66-2.71-.03-3.32-.09-6.64-.2-9.96,.45,3.1,.89,6.2,1.36,9.3h0Zm373.49,9.51c1.23-1.02,2.44-2.07,3.6-3.17,1.46-1.39,2.91-2.82,4.12-4.43,.18-.24-.2-.51-.41-.31-1.46,1.4-2.82,2.9-4.28,4.29-1.22,1.16-2.48,2.26-3.78,3.33,0-.04,0-.09,0-.14,1.91-3.8,4.27-7.26,6.75-10.71,.11-.15-.13-.33-.26-.2-2.55,2.76-4.62,6.01-6.38,9.36,.03-.38,.05-.76,.08-1.14,.17-1.98,.52-3.97,.53-5.95,0-.38-.52-.42-.64-.09-.89,2.56-1.04,5.46-1.16,8.15,0,.28-.01,.56-.02,.84-20.34-1.75-61.09-3.14-112.09-3.83,2.3-3.5,4.75-6.88,7.17-10.3,.16-.22-.19-.49-.37-.29-2.82,3.17-5.26,6.66-7.53,10.25,.34-3.02,1-5.99,1.83-8.92,.07-.25-.28-.32-.37-.1-1.24,2.98-1.93,6.14-2.25,9.34h-.07c-.19-1.48-.42-2.96-.74-4.42-.39-1.79-.83-3.66-1.66-5.31-.14-.28-.53-.07-.48,.21,.31,1.76,.88,3.48,1.27,5.24,.31,1.41,.55,2.84,.73,4.27-10.53-.14-21.48-.24-32.77-.31v-.03c.56-2.13,1.36-4.19,2.31-6.18,.11-.22-.2-.41-.33-.19-.88,1.48-1.55,3.07-2.08,4.71-.09-1.59-.14-3.18-.08-4.77,.09-2.46,.4-4.89,.62-7.34,.02-.24-.36-.29-.42-.06-1.06,4.05-1.14,8.44-.83,12.65-.1-.35-.19-.69-.3-1.04-.43-1.3-.91-2.59-1.45-3.85-.54-1.27-1.11-2.6-1.99-3.67-.23-.28-.68,.02-.59,.34,.36,1.26,1.01,2.45,1.53,3.65,.56,1.29,1.06,2.61,1.51,3.94,.2,.61,.4,1.23,.58,1.84-11.36-.07-23.05-.1-34.99-.1-49.91,0-95.46,.64-130.27,1.69,.49-1.35,.98-2.7,1.46-4.06,.51-1.42,1.06-2.82,1.43-4.28,.07-.27-.33-.46-.46-.19-.65,1.36-1.12,2.79-1.63,4.21-.42,1.17-.85,2.35-1.27,3.52-.02-1.56-.04-3.12-.04-4.68,0-2.49,.13-5.01-.14-7.49-.02-.22-.37-.31-.42-.06-.38,2.44-.3,4.94-.27,7.41,0,.94,.04,1.88,.07,2.82-.23-.64-.45-1.27-.65-1.92-.67-2.14-1.18-4.33-1.88-6.47-.12-.37-.77-.34-.72,.1,.25,2.32,.89,4.56,1.59,6.77,.47,1.47,1,2.92,1.56,4.35-18.43,.57-33.76,1.25-45.03,2.02,.25-4.49,.54-8.97,.89-13.45,1.73-9.91,4.2-19.69,7.47-29.21,1.39-4.05,2.94-8.05,4.46-12.06,.15-.38-.49-.65-.67-.28-3.25,6.87-5.7,14.14-7.78,21.44-.94,3.32-1.78,6.67-2.54,10.04,.52-4.72,1.12-9.42,1.82-14.11,.57-3.83,1.24-7.64,1.76-11.47,.08-.61-.8-.9-.95-.26-1.55,6.76-2.43,13.71-3.26,20.59-.36,3.03-.68,6.06-.97,9.09-.04-3.48-.12-6.97-.26-10.45-.12-3.08-.3-6.16-.64-9.23-.04-.39-.64-.42-.63,0,.06,5.41,.38,10.82,.52,16.23,.11,4.31,.14,8.63,.15,12.94-.49,3.42-.88,6.86-1.16,10.31-1.99,.14-3.87,.29-5.57,.43,.04-9.18,.7-18.32,1.81-27.44,.35-2.83,.78-5.64,1.15-8.47,.05-.4-.63-.49-.71-.1-1.01,4.85-1.62,9.81-2.09,14.74-.49,4.99-.77,10.01-.88,15.03,0,.28,0,.56,0,.85-.2-1.74-.4-3.48-.55-5.22-.32-3.8-.53-7.6-.86-11.4-.03-.42-.65-.43-.66,0-.08,3.86,.18,7.7,.54,11.54,.27,2.88,.53,5.82,1.01,8.7-.31-.71-.62-1.42-.96-2.13-1.11-8.04-2.19-16.07-3.36-24.1-.11-1.93-.24-3.86-.39-5.78-.25-3.23-.48-6.49-.96-9.7-.05-.35-.61-.26-.61,.08,.01,1.21,.05,2.43,.1,3.64-.12-.25-.58-.19-.55,.13,.25,2.7,.6,5.39,.97,8.08,.11,1.81,.22,3.63,.31,5.44,.27,5.24,.46,10.49,.6,15.73-.74-1.01-1.54-2.02-2.49-2.82-.27-.23-.71,.06-.51,.4,.72,1.25,1.65,2.39,2.47,3.57,.2,.29,.4,.6,.6,.9,.07,2.97,.16,5.94,.2,8.91-5.28,.61-8.13,1.27-8.13,1.94,0,3.77,88.65,6.83,198,6.83s198-3.06,198-6.83c0-.84-4.36-1.64-12.32-2.38h0Z"/>
      <path class="cls-19" d="M258.1,178.96c1.4,3.14,2.81,6.28,4.21,9.41h5.71c3.97-4.23,7.94-8.46,11.91-12.69-.49-.76-.98-1.52-1.47-2.27-4.71,.76-9.42,1.52-14.13,2.27l-2.64,.8c-1.2,.82-2.4,1.65-3.6,2.47"/>
      <path class="cls-29" d="M269.51,174.76c-1.68,.52-3.43,1.12-5.24,1.81-2.52,.95-4.83,1.97-6.93,2.99-1.23-.81-3.01-2.19-4.52-4.34-2.12-3.02-2.63-5.96-2.8-6.82-.54-2.68-2.12-6.92-6.23-14.06-1.43-2.48-3.16-5.3-5.27-8.53-5.9-.78-10.83-1.85-14.57-2.81,0,0-7.91-2.03-14.95-5.21-2.36-1.07-3.98-2.14-4.51-2.5-.61-.41-1.25-.86-1.9-1.39-2.02-1.61-3.63-3.33-4.93-4.99-2.14-2.75-3.4-5.35-4.2-7.01-1.09-2.27-1.75-4.26-2.17-5.64,8.17-1.55,16.33-3.12,24.5-4.68,1.39,.71,2.75,1.38,4.06,2.02,.65,.33,1.31,.64,1.93,.94,7.32,3.57,13.43,6.23,17.95,8.13,7.29,3.05,9.36,3.62,12.16,6.29,3.07,2.91,5.34,8.85,9.75,20.58,2.76,7.34,4.22,12.02,4.95,14.45,1.27,4.22,2.23,7.89,2.93,10.77"/>
      <path class="cls-2" d="M214.69,54.68c.13,.52,.28,.95,.4,1.27,.18,.49,.31,.79,.49,1.37,.26,.86,.23,1.12,.11,1.33-.11,.19-.28,.27-.46,.36-.62,.3-1.26,.24-1.63,.17,.36-1.5,.73-3,1.09-4.49h0Z"/>
      <path class="cls-2" d="M209.38,60.51c-.27,.33-.55,.7-.85,1.11-.42,.6-.86,1.28-1.28,2.04-.32,.6-.61,1.17-.85,1.73-.26,.6-.46,1.15-.63,1.67-.42,2.66-.97,4.02-1.67,4.1-1.16,.13-2.71-3.38-4.64-10.51,.7-.82,1.46-1.67,2.32-2.53,1.07-1.11,2.15-2.08,3.16-2.93,.55-.27,.98-.29,1.28-.24,1.56,.22,2.89,2.44,3.15,5.56"/>
      <path class="cls-17" d="M208.53,61.63c-.42,.6-.86,1.27-1.28,2.04-.32,.6-.61,1.17-.85,1.73-.58-.45-2.96-2.51-2.76-5.7,.16-2.51,1.82-4.07,2.19-4.41,.5,1.33,1.06,2.71,1.68,4.12,.33,.76,.67,1.51,1.01,2.23h0Z"/>
      <path class="cls-2" d="M215.8,50.9c-.06,.63-.08,.91-.26,1.86-.1,.54-.04,1-.29,1.58-.16,.35-.22,.31-.3,.61-.18,.54,.02,.7-.1,1.52-.06,.3-.09,.42-.15,.79-.07,.36-.08,.46-.14,.72-.13,.55-.23,.95-.37,1.3-.07,.19-.15,.36-.26,.53-.03,.05-.07,.09-.1,.14-.08,.11-.15,.18-.22,.26-.06,.06-.11,.11-.17,.19-.09,.13-.15,.25-.16,.28-1.06,2.27-2.35,2.6-2.35,2.6-.45,.1-.94-.1-1.92-.52-.74-.33-1.71-.73-2.5-1.69-.43-.52-.62-.99-.88-1.59-.66-1.48-.86-2.83-.9-3.74-.16-.1-.39-.27-.68-.5-.86-.71-2.11-2.03-2.53-4.01-.11-.57-.2-1.38-.07-2.3,.3-2.05,1.71-3.96,3.4-4.96,3.77-2.25,9.19-.34,10.43,2.36,.55,1.22,.65,3.38,.52,4.57"/>
      <path class="cls-13" d="M214.19,59.27c-.07,.19-.15,.36-.26,.53-.03,.04-.07,.09-.1,.14-.08,.11-.15,.18-.22,.26-.06,.06-.11,.11-.17,.19-.09,.13-.15,.25-.16,.28-1.06,2.27-2.35,2.6-2.35,2.6-.45,.1-.94-.1-1.92-.52-.74-.33-1.71-.73-2.5-1.69-.43-.52-.62-.99-.88-1.59-.66-1.48-.85-2.83-.9-3.74-.16-.1,.35-2.64,.35-2.64l3.02-1.62c-.12,1.33-.41,2.36-.66,3.08-.32,.92-.59,1.32-.49,2.02,.16,1.14,1.1,1.87,1.14,1.91,.27,.2,.53,.32,.71,.39,.28-.2,.68-.46,1.2-.7,.54-.23,1.2-.54,1.88-.49,1.2,.06,2.03,1.17,2.3,1.59h0Z"/>
      <path class="cls-30" d="M212.99,60.11h-.01c-.28-.03-.54-.12-.77-.27-.16-.11-.3-.25-.42-.42-.04-.07-.03-.15,.04-.2,.06-.04,.15-.03,.19,.04,.09,.14,.21,.26,.34,.35,.18,.13,.4,.2,.63,.22,.08,0,.14,.07,.13,.15,0,.07-.07,.13-.14,.13h0Z"/>
      <path class="cls-30" d="M206.81,53.4c.13,.07,.29,.14,.49,.2,.16,.05,.29,.07,.42,.09,.27-.7,.63-1.8,.83-3.18,.42-2.81-.22-4.06,.46-4.83,.58-.66,2.13-.97,6.54,.88-.08-.99-.36-2.5-1.43-3.8-2.44-2.99-7.8-3.46-11.28-.95-3.54,2.55-3.87,7.24-3.07,10.3,.74,2.78,2.5,4.52,3.37,5.27,.34-.44,.71-.89,1.1-1.34,.87-1.01,1.74-1.87,2.58-2.63"/>
      <path class="cls-20" d="M214.26,54.06c-.08,.32-.32,.54-.53,.49-.21-.05-.32-.36-.24-.68,.08-.32,.32-.54,.53-.49,.21,.05,.32,.36,.24,.68h0Z"/>
      <path class="cls-30" d="M215.2,52.02c-.11,.12-.29,.14-.42,.04-.18-.13-.41-.28-.7-.4-.26-.1-.56-.15-.81-.18-.23-.02-.35-.28-.23-.47,.04-.07,.11-.12,.2-.14,.24-.05,.69-.1,1.2,.1,.39,.16,.66,.41,.81,.6,.1,.12,.09,.29-.01,.4l-.04,.04h0Z"/>
      <path class="cls-19" d="M219.86,113.93c-1.74,1.17-3.49,2.35-5.23,3.54-1.26,.83-2.51,1.67-3.76,2.52-3.15,2.12-6.3,4.25-9.45,6.38-1.26,.84-2.52,1.69-3.78,2.54h-.02c-1.06-.41-2.73-1.18-4.14-2.76-.99-1.11-1.59-2.33-1.96-3.4-.35-1.02-.49-1.92-.59-2.49-.11-.66-.21-1.3-.33-1.93-.76-4.22-1.6-7.69-2.34-10.91-.35-1.53-.68-3.01-.97-4.48-.81-4.21-1.28-8.43-.97-13.89,.07-1.14,.16-2.17,.28-3.14,.05-.47,.1-.91,.17-1.35,.17-1.19,.37-2.25,.6-3.24,.71-3.18,1.64-5.81,2.52-7.82,.26-.59,.5-1.13,.74-1.61,.38-.78,.72-1.42,1.01-1.92,.28-.49,.52-.86,.67-1.09,.61-.95,1.22-1.83,1.87-2.64,1.71-2.22,3.44-3.93,4.87-5.17h.01c.2-.19,.41-.36,.6-.52,.62,1.11,1.48,2.52,2.7,3.99,.76,.94,1.67,1.92,2.74,2.89,.85,.75,1.42,1.17,1.85,1.51,.07,.04,.12,.09,.18,.13,.1,.08,.19,.17,.28,.25,0,0,.38,.35,.72,.75,.83,.98,1.54,2.13,2.14,3.35,.25,.47,.47,.95,.68,1.45,.77,1.83,1.33,3.74,1.74,5.5,.84,3.57,1.07,6.42,1.07,6.42,.06,.76,.1,1.51,.14,2.24,.08,1.61,.1,3.14,.1,4.56,.02,1.6,0,3.06,.02,4.41,.02,1.79,.09,3.35,.33,4.68,.27,1.58,.79,2.8,1.72,3.67h0c.2,.19,.67,.58,1.21,1.22,.33,.37,.66,.83,.99,1.37,.2,.34,.38,.68,.53,1.01,.64,1.37,.91,2.67,1.02,3.62,.01,.11,.02,.23,.03,.33"/>
      <path class="cls-24" d="M213.9,89.05c-4.61-.68-9.23-1.4-13.8-2.15-4.42-.73-8.88-1.52-13.32-2.34-.19,1.33-.35,2.8-.45,4.49,4.35,.81,8.72,1.58,13.04,2.29,4.85,.81,9.73,1.56,14.63,2.27,0-1.42-.02-2.95-.1-4.56m.12,8.97c-3.79,1.42-7.7,2.52-11.66,3.33-4.96,1.01-10,1.55-15.07,1.59,.29,1.47,.62,2.95,.97,4.48,5.03-.09,10.04-.64,15-1.66,3.76-.75,7.46-1.78,11.09-3.06-.24-1.33-.3-2.89-.33-4.68m4.25,10.95c-.88-1.46-1.88-2.31-2.19-2.59-2.97,2.22-6.11,4.18-9.36,5.89-5.11,2.67-10.5,4.69-16.11,6.07,.11,.63,.22,1.27,.33,1.93,.09,.56,.24,1.46,.59,2.49,6.02-1.46,11.8-3.65,17.28-6.51,3.48-1.82,6.83-3.92,10-6.27-.15-.34-.33-.68-.53-1.01m-7.32-34.08c-3.2-1.28-6.32-2.72-9.36-4.33-2.52-1.33-5-2.77-7.4-4.32-.64,.81-1.26,1.69-1.87,2.64-.15,.24-.38,.6-.67,1.09,2.56,1.63,5.17,3.16,7.83,4.57,4.26,2.24,8.68,4.2,13.21,5.85-.42-1.76-.98-3.67-1.74-5.5"/>
      <path class="cls-9" d="M195.3,101.09c-1.73-1.38-3.29-3.51-4.65-5.94,.02-1.73,.11-3.48,.25-5.27,1.49,.27,2.97,.53,4.46,.78-.28,3.62-.28,7.11-.06,10.43m.55-14.91c-1.48-.26-2.96-.52-4.44-.78,.66-4.6,1.73-9.16,3.2-13.61,1.32,.79,2.65,1.54,4,2.27-1.26,3.96-2.19,8.02-2.76,12.11m4.27-16.42c-1.33-.73-2.64-1.49-3.94-2.28,.86-2.18,1.82-4.32,2.87-6.42h.01c.2-.19,.41-.36,.6-.52,.62,1.11,1.48,2.52,2.7,3.99-.81,1.72-1.56,3.46-2.24,5.22"/>
      <path class="cls-8" d="M195.36,90.66c-1.48-.25-2.97-.51-4.46-.78,.05-.6,.11-1.2,.17-1.81,.1-.89,.21-1.78,.34-2.67,1.48,.26,2.96,.52,4.44,.78-.11,.79-.21,1.58-.29,2.37-.08,.71-.14,1.41-.19,2.11m3.25-16.59c-1.35-.73-2.68-1.49-4-2.27,.48-1.45,1.01-2.89,1.57-4.31,1.3,.79,2.61,1.55,3.94,2.28-.29,.76-.58,1.53-.85,2.31-.24,.5-.41,1.03-.53,1.58-.04,.14-.09,.28-.13,.42"/>
      <path class="cls-9" d="M209.95,105.05c-.55-.16-1.09-.32-1.65-.48,.48-.13,.95-.26,1.43-.4,.07,.29,.14,.58,.22,.88m-5.49-4.17c-.29-1.71-.52-3.47-.68-5.29-.11-1.21-.18-2.41-.22-3.58,1.51,.24,3.02,.48,4.53,.71,.04,.81,.09,1.64,.16,2.48,.14,1.56,.33,3.07,.57,4.54-1.45,.42-2.9,.81-4.37,1.14m-.65-13.38c-.08-.01-.16-.03-.24-.04,0-.05,0-.1,0-.14,.06,.04,.11,.08,.18,.12,.02,.02,.04,.04,.06,.06"/>
      <path class="cls-8" d="M208.31,104.58c-1.09-.3-2.19-.59-3.29-.84-.2-.93-.38-1.88-.55-2.85,1.46-.34,2.92-.72,4.37-1.14,.25,1.53,.55,3.01,.9,4.44-.48,.14-.95,.27-1.43,.4m-.21-11.85c-1.51-.23-3.03-.47-4.53-.71-.05-1.56-.05-3.07,0-4.56,.08,.01,.16,.03,.24,.04,.62,.59,1.23,1.09,1.82,1.53h0c.61,.46,1.19,.85,1.73,1.2,.22,.18,.45,.36,.67,.55,.01,.64,.03,1.29,.06,1.95"/>
      <path class="cls-2" d="M206.68,54.25c.69-1.49,.46-3.02-.25-3.56-.4-.31-.97-.29-1.4-.06-.79,.42-.99,1.53-1.16,2.46-.14,.74-.25,1.35,.04,1.91,.24,.46,.69,.75,1.14,.76,.68,.02,1.36-.58,1.63-1.5h0Z"/>
      <path class="cls-6" d="M204.79,54.87c-.18-.02-.29-.24-.34-.33-.19-.38-.1-.81-.04-.98,.03-.09,.1-.14,.18-.11,.07,.03,.11,.12,.08,.21-.03,.1-.11,.42,.02,.69,.09,.17,.13,.18,.14,.18,.01-.02,.05-.1,.07-.16,.06-.16,.15-.37,.34-.51,.17-.13,.33-.1,.43-.09,.08,0,.13,.01,.19-.02,.18-.11,.33-.61,.34-1.14,0-.47-.1-.82-.27-.91-.22-.12-.6,.16-.88,.45-.06,.06-.15,.06-.2-.01-.05-.07-.04-.18,.02-.24,.27-.28,.78-.72,1.18-.51,.28,.15,.44,.6,.43,1.21,0,.58-.16,1.25-.5,1.45-.13,.08-.25,.06-.34,.05-.1-.01-.16-.02-.26,.04-.11,.09-.17,.23-.23,.36-.07,.16-.14,.35-.31,.36h-.05Z"/>
      <path class="cls-24" d="M207.52,69.42c.11-.96,.22-1.92,.33-2.89-1.62-1.04-3.39-2.32-5.19-3.89-1.09-.94-2.06-1.89-2.93-2.79-.18,.14-.37,.29-.56,.48-.59,.57-.96,1.17-1.21,1.65,1.47,1.7,3.49,3.67,6.18,5.47,1.18,.79,2.32,1.44,3.39,1.97h0Z"/>
      <path class="cls-7" d="M216.74,42.27c-.03-.09-.13-.12-.22-.09-.08,.03-.12,.13-.09,.22,.18,.42,.37,1.08,.28,1.9-.03,.25-.08,.48-.15,.69,.06-.76,0-1.64-.34-2.56-.79-2.19-2.82-3.78-5.29-4.16-.09-.02-.17,.05-.19,.14-.01,.09,.05,.17,.14,.19,2.35,.36,4.28,1.87,5.03,3.94,.14,.4,.23,.78,.28,1.15-.69-1.74-2.19-2.88-2.63-3.2-.08-.06-.14-.1-.18-.13-1.32-.94-4.77-2.34-7.61-1.07-2.44,1.09-2.27,3.19-4.97,3.87-.83,.21-1.76,.24-1.85,.67-.1,.46,.81,1.06,1.63,1.5,1.76,.14,3.6,.56,5.57,.66,2.3,.11,5.54,.57,9.47,2.12,.19-.23,.47-.59,.67-1.1,.17-.43,.24-.83,.26-1.17,.21-.38,.41-.89,.49-1.52,.1-.89-.11-1.61-.31-2.07"/>
      <path class="cls-3" d="M224.7,46.75c.14-.72-1.44-1.67-2.11-1.97-1.2-.54-2.81-.96-4.51-1.29,.1-.7,.47-3.69-1.46-5.81-1.34-1.47-3.04-1.71-5.96-2.11-2.68-.37-4.86-.67-6.77,.65-1.37,.95-2.15,2.43-2.46,3.01-.57,1.09-.84,2.09-.97,2.78-.71-.08-1.43-.14-2.17-.21-.67-.07-1.28-.12-1.84-.14l.72,1.54-2.77-1.45c-.63,.12-1.12,.38-1.44,.83-.47,.66,4.84,4.85,17.35,6.47,7.34,.96,11.62,1.7,13.67-.7l-2.95-.61c.29,0,3.47-.05,3.66-1"/>
      <path class="cls-2" d="M215.97,77.08c6.09,5.05,12.17,10.09,18.25,15.14,9.46,3.87,18.92,7.73,28.38,11.6-.73,1.59-1.46,3.17-2.2,4.75-5.11-.95-18.82-3.62-30.09-7.33-2.88-.95-5.7-2-8.92-3.61-4.46-2.23-8.05-4.7-10.83-6.92,1.8-4.55,3.61-9.09,5.41-13.64"/>
      <path class="cls-19" d="M225.24,83.88c-1,1.42-1.99,2.84-2.99,4.26-.87,1.24-1.73,2.46-2.6,3.7-.92,1.32-1.85,2.64-2.78,3.96-2-1.08-4.53-2.51-7.42-4.26-.58-.36-1.18-.73-1.8-1.11-.62-.39-1.3-.84-2.02-1.38-1.12-.83-2.31-1.89-3.44-3.33-.06-.07-.1-.13-.15-.2-.12-.16-.24-.34-.36-.5-.9-1.34-1.74-3.01-2.33-4.79-.46-1.36-.75-2.8-.8-4.2-.06-1.65,.25-3.26,1.1-4.62,.16-.28,.36-.55,.57-.81,2.02-2.4,5.22-2.86,7.01-2.94,1.05,.73,2.11,1.52,3.21,2.34,1.25,.96,2.53,1.98,3.82,3.07,.44,.37,.87,.74,1.31,1.13,1.17,1.02,2.28,2.05,3.34,3.06,1.15,1.09,2.23,2.18,3.24,3.24,1.1,1.17,2.12,2.31,3.08,3.41"/>
      <path class="cls-24" d="M222.25,88.14c-.87,1.24-1.73,2.46-2.6,3.7-1.88-1.55-3.74-3.06-5.58-4.54-3.95-3.19-6.04-4.78-8.6-6.62-2.26-1.62-4.57-3.18-6.92-4.67-.06-1.65,.25-3.26,1.1-4.62,2.87,1.77,5.7,3.67,8.44,5.64,2.6,1.86,4.82,3.57,8.79,6.76,1.78,1.43,3.57,2.88,5.37,4.36"/>
      <path class="cls-9" d="M209.62,91.35c-1.14-.94-2.41-1.97-3.52-2.84,1.32-1.47,2.7-2.9,4.14-4.26,1.03,.8,2.18,1.72,3.56,2.83-1.46,1.35-2.85,2.78-4.18,4.27m-2.26-1.11c-.54-.35-1.12-.74-1.73-1.2,.03-.04,.06-.07,.09-.11,.51,.4,1.06,.84,1.64,1.3"/>
      <path class="cls-9" d="M201.68,85h0c-.9-1.34-1.74-3.01-2.33-4.79,.57-.86,1.19-1.69,1.84-2.49,1.26,.83,2.5,1.69,3.72,2.56-1.33,1.56-2.38,3.17-3.23,4.72m15.57-.92c-.12-.1-.25-.2-.37-.3-1.22-.98-2.28-1.82-3.23-2.57,1.69-1.41,3.45-2.74,5.27-3.98,1.15,1.09,2.23,2.18,3.24,3.24-1.69,1.12-3.33,2.33-4.91,3.61m-9.12-7.03s-.03-.02-.04-.03c-1.24-.89-2.49-1.76-3.76-2.62,2-1.84,4.08-3.28,6.11-4.43,1.25,.96,2.53,1.98,3.82,3.07-1.99,.97-4.1,2.26-6.14,4"/>
      <path class="cls-8" d="M213.8,87.08c-1.38-1.11-2.53-2.03-3.56-2.83,.47-.45,.95-.89,1.43-1.32,.65-.59,1.31-1.16,1.98-1.72,.95,.75,2.01,1.59,3.23,2.57,.12,.1,.25,.2,.37,.3-.88,.71-1.73,1.44-2.57,2.2-.29,.26-.59,.53-.88,.8m-8.89-6.8c-1.23-.87-2.47-1.73-3.72-2.56,.35-.42,.71-.84,1.08-1.25,.67-.74,1.36-1.43,2.06-2.07,1.27,.86,2.52,1.73,3.76,2.62,.01,0,.03,.02,.04,.03-.86,.74-1.72,1.55-2.54,2.46-.23,.26-.46,.51-.68,.77"/>
      <path class="cls-5" d="M279.49,122.78l-9.35,4.83-7.06-13.67c-.52-1.01-.12-2.25,.88-2.77l5.69-2.94c1.01-.52,2.25-.13,2.77,.88l7.06,13.67h0Z"/>
      <polygon class="cls-5" points="269.11 110.65 266.26 112.13 261.96 103.81 264.82 102.34 269.11 110.65 269.11 110.65"/>
      <path class="cls-5" d="M251.31,118.82h0c-.95-.75-1.12-2.12-.38-3.08l18.48-23.69c.75-.95,2.12-1.13,3.08-.38,.95,.75,1.12,2.12,.38,3.08l-18.48,23.69c-.75,.95-2.12,1.13-3.08,.38h0Z"/>
      <path class="cls-2" d="M253.5,100.38l5.56-2.01c1.18,.43,2.36,.86,3.54,1.28,.05,.11,.14,.35,.11,.65-.07,.52-.46,.81-.53,.86,1.19,.91,2.38,1.81,3.57,2.72,.41,.82,.73,1.53,.96,2.08,.28,.68,.39,.99,.24,1.27-.25,.45-1.01,.45-1.17,.45,.02,.27-.04,.44-.1,.55-.25,.49-1,.74-1.84,.57,0,.11,0,.44-.21,.67-.3,.31-.93,.33-1.45-.06,.07,.27,0,.56-.21,.75-.2,.19-.49,.26-.75,.18-2.11-.53-4.22-1.06-6.34-1.59l-2.65-2.08,1.27-6.28h0Z"/>
      <path class="cls-28" d="M259.37,163.56l-15.72-31.85-21.63-9.3c-.04-.22-.08-.44-.11-.66l22.16,9.53,.04,.09,15.77,31.94-.5,.25"/>
      <path class="cls-14" d="M216.19,92.96l-.5-.25,1.48-2.9c.15,.12,.3,.24,.45,.36l-1.42,2.79m3.52-6.89c-.15-.12-.3-.24-.45-.36l1.66-3.23,.5,.26-1.71,3.34"/>
      <path class="cls-27" d="M217.62,90.17c-.15-.12-.3-.24-.45-.36l2.09-4.1c.15,.12,.3,.24,.45,.36l-2.09,4.1"/>
      <path class="cls-14" d="M202.45,95.81l-.56-.02c.05-1.6,.1-2.92,.16-4.02,.19,.03,.38,.06,.57,.09-.08,1.25-.14,2.62-.17,3.94m.6-8.43c-.18-.03-.36-.06-.53-.09,.11-.5,.22-.71,.32-.8,.24,.27,.49,.53,.73,.77v.05c-.18-.12-.33-.22-.43-.27-.03,.08-.06,.19-.09,.33"/>
      <path class="cls-27" d="M210.79,93.05c-.91-.76-1.85-1.53-2.76-2.27v-.12c.49,.3,.96,.59,1.42,.88h0c.49,.3,.97,.59,1.44,.87,.09,.07,.17,.14,.25,.21l-.36,.43m-8.16-1.18c-.19-.03-.38-.06-.57-.09,.14-2.44,.3-3.76,.47-4.48,.18,.03,.36,.06,.53,.09-.16,.8-.31,2.5-.43,4.49"/>
      <path class="cls-26" d="M203.75,87.44c-.06-.04-.12-.09-.18-.12v-.05c.06,.06,.12,.12,.18,.17"/>
      <path class="cls-25" d="M208.03,90.78c-.23-.18-.45-.37-.67-.55,.1,.06,.2,.13,.29,.19,.13,.08,.25,.16,.38,.23v.12"/>
      <path class="cls-14" d="M210.89,92.4c-.47-.28-.95-.57-1.44-.87,.06-.06,.11-.12,.17-.19,.45,.37,.88,.73,1.27,1.06m-5.17-3.47c-.8-.62-1.48-1.14-1.97-1.49-.06-.06-.12-.11-.18-.17-.24-.24-.49-.5-.73-.77,.07-.06,.14-.06,.2-.06h0c.3,0,1.54,.89,3.05,2.07-.13,.14-.25,.28-.38,.42"/>
      <path class="cls-26" d="M209.45,91.53h0c-.46-.29-.94-.58-1.42-.88-.13-.08-.25-.16-.38-.23-.1-.06-.19-.12-.29-.19-.58-.47-1.13-.91-1.64-1.3,.13-.14,.25-.28,.38-.42,1.11,.87,2.38,1.89,3.52,2.84-.06,.06-.11,.13-.17,.19"/>
      <path class="cls-18" d="M209.5,43.29c-2.17,0-4.35-.16-6.5-.46l.08-.55c2.11,.3,4.25,.46,6.38,.46,.43,0,.86,0,1.29-.02,1.72-.05,3.44-.2,5.13-.44l.08,.55c-1.71,.25-3.46,.4-5.19,.45-.42,0-.85,.02-1.27,.02"/>
      <path class="cls-18" d="M207.08,41.81c-.34,0-.68-.02-1.02-.04l.05-.56c.32,.03,.65,.04,.97,.04,.92,0,1.83-.11,2.71-.33,.87-.22,1.72-.55,2.52-.98l.27,.5c-.84,.45-1.73,.79-2.65,1.02-.93,.24-1.89,.36-2.85,.36"/>
      <path class="cls-10" d="M243.78,154.34h0c-1.43-2.48-3.16-5.3-5.27-8.53-5.9-.78-10.83-1.85-14.57-2.81,0,0-7.91-2.03-14.95-5.21-2.36-1.07-3.98-2.14-4.51-2.5-.61-.41-1.25-.86-1.9-1.39-2.02-1.61-3.63-3.33-4.93-4.99,1.26-.86,2.52-1.7,3.78-2.54h0c3.15-2.13,6.3-4.26,9.45-6.38h0c1.25-.85,2.5-1.69,3.76-2.52h0c1.74-1.18,3.49-2.37,5.23-3.54-.01-.1-.02-.21-.03-.33,.65,.33,1.31,.64,1.93,.94-.17,2.06-.24,4.62,.15,7.21l-4.72-2.03-.22,.52,5.05,2.17c.68,3.75,2.38,7.48,6.19,9.82,9.82,6.01,15.84,11.03,15.84,18.15,0,1.2-.1,2.54-.28,3.95"/>
      <path class="cls-14" d="M197.62,128.89c-1.06-.39-2.73-1.17-4.14-2.75-.99-1.11-1.59-2.33-1.96-3.4,1.13-.28,2.25-.58,3.37-.9,.87,2.59,1.8,4.94,2.73,7.05m3.8-2.53c-.76-1.79-1.53-3.76-2.25-5.9,3.3-1.18,6.52-2.59,9.63-4.21,.08-.04,.16-.08,.23-.12,.59,1.36,1.21,2.64,1.84,3.86-3.15,2.12-6.3,4.25-9.45,6.38h0m-10.81-8.04h0c-.76-4.22-1.6-7.69-2.34-10.91,1.06-.02,2.11-.06,3.16-.12,.52,3.66,1.27,7.08,2.14,10.24-.98,.29-1.97,.55-2.96,.79m24.03-.87c-.57-1.13-1.13-2.31-1.66-3.57,2-1.21,3.95-2.52,5.84-3.92h0c.64,1.37,.91,2.67,1.02,3.62h0c.01,.11,.02,.23,.03,.33-1.74,1.17-3.49,2.35-5.23,3.54h0m-16.78-1.31c-.78-2.86-1.45-5.95-1.93-9.23,2.46-.27,4.91-.66,7.34-1.16,.71-.14,1.41-.29,2.11-.45,.57,2.33,1.24,4.54,1.98,6.62-.21,.11-.42,.23-.64,.34-2.87,1.5-5.83,2.79-8.87,3.89m13.47-6.53c-.5-1.46-.96-2.98-1.37-4.57,1.93,.58,3.8,1.21,5.45,1.82-1.33,.97-2.7,1.88-4.08,2.75m6.51-1.33c-.07-.1-.13-.19-.2-.27,.07,.09,.13,.18,.2,.27m-30.54-5.36h0c-.64-3.3-1.07-6.61-1.07-10.53,0-1.07,.03-2.18,.1-3.36h0c.52,.1,1.05,.2,1.57,.29,.8,1.98,1.72,3.98,2.75,5.81-.04,2.64,.06,5.2,.27,7.67-1.2,.07-2.41,.1-3.62,.11m8.11-.49c-.03-.45-.07-.9-.1-1.35,.6,.48,1.21,.86,1.85,1.14-.58,.08-1.16,.15-1.75,.22m-9.08-13.4c.04-.73,.1-1.41,.16-2.07-.06,.66-.12,1.34-.16,2.07"/>
      <path class="cls-27" d="M191.52,122.75c-.35-1.02-.49-1.92-.59-2.49-.11-.66-.21-1.3-.33-1.93h0c1-.24,1.98-.51,2.96-.79,.42,1.5,.86,2.94,1.32,4.31-1.12,.33-2.24,.63-3.37,.9h0m7.65-2.29c-.46-1.37-.9-2.81-1.32-4.31,3.04-1.09,6-2.39,8.87-3.89,.21-.11,.43-.23,.64-.34,.53,1.47,1.09,2.87,1.67,4.2-.08,.04-.16,.08-.23,.12-3.12,1.63-6.33,3.03-9.63,4.21m13.8-6.56c-.58-1.35-1.13-2.77-1.64-4.27,1.39-.87,2.75-1.78,4.08-2.75,.66,.24,1.29,.49,1.88,.72,.11,.13,.23,.28,.35,.43,.07,.09,.13,.18,.2,.27,.15,.21,.3,.43,.44,.67,.2,.34,.38,.68,.53,1.01-1.89,1.4-3.84,2.7-5.84,3.92m-24.7-6.48c-.35-1.53-.68-3.01-.97-4.48h0c1.21,0,2.42-.04,3.62-.11,.13,1.53,.3,3.02,.51,4.47-1.05,.06-2.11,.1-3.16,.12h0m7.65-.5c-.21-1.45-.38-2.94-.51-4.47,.58-.06,1.17-.14,1.75-.22,.59,.26,1.19,.42,1.81,.48,1.88,.17,3.95,.54,6.05,1.03,.11,.53,.23,1.05,.36,1.57-.7,.16-1.4,.31-2.11,.45-2.44,.5-4.89,.88-7.34,1.16m-8.02-17.58c-.53-.1-1.05-.19-1.57-.29h0c.04-.73,.1-1.41,.16-2.07,.04-.36,.08-.72,.12-1.07,.39,1.11,.82,2.26,1.29,3.43"/>
      <path class="cls-26" d="M197.64,128.91h-.02c-.93-2.12-1.86-4.47-2.73-7.06,1.44-.42,2.87-.88,4.28-1.39,.72,2.14,1.49,4.11,2.25,5.9-1.26,.84-2.52,1.69-3.78,2.54h0m-4.07-11.37c-.87-3.16-1.62-6.58-2.14-10.24,1.5-.09,3-.21,4.49-.38,.48,3.29,1.15,6.38,1.93,9.23-1.41,.5-2.84,.97-4.28,1.39m-2.65-14.71c-.21-2.47-.31-5.03-.27-7.67,1.37,2.43,2.92,4.56,4.65,5.94,.03,.46,.07,.91,.1,1.35-1.49,.17-2.98,.29-4.48,.37"/>
      <path class="cls-25" d="M194.89,121.85c-.46-1.37-.9-2.81-1.32-4.31,1.44-.42,2.87-.88,4.28-1.39,.41,1.5,.86,2.94,1.32,4.31-1.41,.5-2.83,.97-4.28,1.39m-3.46-14.55c-.21-1.46-.38-2.95-.51-4.47,1.5-.08,2.99-.21,4.48-.37,.13,1.53,.3,3.02,.51,4.47-1.49,.17-2.99,.29-4.49,.38"/>
      <path class="cls-26" d="M210.87,119.98c-.63-1.22-1.25-2.5-1.84-3.86,1.33-.7,2.64-1.45,3.94-2.23,.54,1.25,1.09,2.44,1.66,3.57-1.26,.83-2.51,1.67-3.76,2.52h0m-3.51-8.06c-.74-2.08-1.41-4.28-1.98-6.62,.98-.23,1.96-.47,2.93-.73,.55,.16,1.1,.31,1.65,.48,.41,1.59,.87,3.11,1.37,4.57-1.3,.81-2.62,1.58-3.97,2.3"/>
      <path class="cls-25" d="M209.03,116.12c-.59-1.33-1.15-2.74-1.67-4.2,1.34-.72,2.67-1.49,3.97-2.3,.51,1.5,1.06,2.92,1.64,4.27-1.29,.78-2.6,1.53-3.94,2.23m-3.66-10.82c-.13-.52-.25-1.04-.36-1.57,1.1,.25,2.2,.54,3.29,.84-.97,.26-1.95,.5-2.93,.73"/>
      <path class="cls-31" d="M222.02,122.41l-5.05-2.17,.22-.52,4.72,2.03c.03,.22,.07,.44,.11,.66"/>
      <polyline class="cls-5" points="272.37 183.03 261.69 126.64 285.83 117.74 293.54 150.38 272.37 183.03"/>
      <polygon class="cls-21" points="108.48 127.63 117.84 188.37 215.94 188.37 212.43 127.63 196.19 114.17 137.43 114.17 108.48 127.63 108.48 127.63"/>
      <path class="cls-21" d="M399.74,136.93l-1.54,7.48-12.64,61.37h-116.35c1.92-10.19,3.85-20.37,5.77-30.56,3.61-19.16,7.24-38.33,10.85-57.49,34.75,2.19,69.51,4.38,104.25,6.56,6.39,.4,10.94,6.37,9.66,12.64"/>
      <path class="cls-16" d="M398.16,144.6l.04-.19s-.02,.1-.04,.19"/>
      <path class="cls-23" d="M385.56,205.78h-116.35c1.92-10.19,3.85-20.37,5.77-30.56h40.27c2.28-2.94,10.49-12.8,25.27-16.31,3.64-.87,7.1-1.21,10.31-1.21,10.39,0,18.12,3.62,20.58,4.87,1.25,.33,3.27,.75,5.73,.75,2.06,0,4.43-.3,6.91-1.2,10.8-3.93,13.73-15.72,14.12-17.52l-12.6,61.18"/>
      <path class="cls-5" d="M193.01,114.39c-1.83-11.23-3.65-22.45-5.47-33.68-.55-3.36-3.72-5.65-7.08-5.1-1.92,.31-3.84,.62-5.76,.93-1.86,.3-3.14,2.03-2.89,3.9,1.52,11.38,3.04,22.76,4.57,34.15,5.55-.07,11.1-.13,16.64-.2h0Z"/>
      <path class="cls-12" d="M169.3,115.2l-2.81-26.65c-.24-2.29,1.42-4.33,3.71-4.58,2.29-.24,4.33,1.42,4.58,3.7l2.81,26.64-8.28,.88h0Z"/>
      <path class="cls-12" d="M274.39,199.15c4.03-27.6,14.74-102.32,14.68-109.85l-8.33,.06c.04,5.9-9.14,71.38-14.77,109.79h8.41Z"/>
      <polygon class="cls-12" points="219.95 197.35 211.62 197.2 212.77 133.31 194.69 118.34 138.35 118.34 97.04 137.54 93.53 129.99 136.51 110.01 197.7 110.01 221.17 129.46 219.95 197.35 219.95 197.35"/>
      <polygon class="cls-22" points="366.56 205.79 168.89 205.79 168.89 188.37 366.56 188.37 366.56 205.79 366.56 205.79"/>
      <path class="cls-22" d="M116.27,189.24l-44.92,4.48c-1.23,.12-2.29,.91-2.77,2.05l-12.2,28.85c-2.99,6.65-5.98,13.28-8.96,19.94v17.16h16.82l.57-12.06s-2.17-4.28-3.25-6.43c-.15-4.15-.31-8.3-.46-12.45l12.92-30.55,42.93-4.28c1.86-.18,3.21-1.84,3.03-3.69-.19-1.86-1.84-3.2-3.7-3.03h0Z"/>
      <path class="cls-11" d="M219.12,182.52c-.31-1.34-.66-2.67-1.05-3.97,2.36-1.86,3.08-5.19,1.53-7.86l-8.71-15.08c-1.55-2.68-4.81-3.73-7.6-2.6-.94-1-1.9-1.96-2.9-2.9,1.13-2.79,.09-6.05-2.6-7.6l-15.08-8.71c-2.68-1.54-6.01-.82-7.87,1.53-1.31-.39-2.63-.74-3.97-1.05-.42-2.97-2.96-5.27-6.05-5.27h-17.41c-3.09,0-5.63,2.3-6.05,5.27-1.34,.31-2.67,.66-3.97,1.05-1.86-2.36-5.19-3.08-7.87-1.53l-15.08,8.71c-2.68,1.55-3.73,4.81-2.6,7.6-1,.94-1.96,1.9-2.9,2.9-2.79-1.13-6.05-.09-7.6,2.6l-8.7,15.08c-1.54,2.67-.83,6.01,1.53,7.86-.4,1.31-.74,2.64-1.05,3.97-2.98,.42-5.27,2.96-5.27,6.05v17.41c0,3.09,2.3,5.62,5.27,6.04,.31,1.34,.66,2.67,1.05,3.98-2.36,1.86-3.08,5.19-1.53,7.86l8.7,15.08c1.55,2.68,4.81,3.73,7.6,2.59,.94,1,1.9,1.96,2.9,2.9-1.13,2.79-.09,6.05,2.6,7.6l15.08,8.71c2.68,1.54,6.01,.82,7.87-1.53,1.31,.4,2.63,.74,3.97,1.05,.42,2.98,2.96,5.27,6.05,5.27h17.41c3.09,0,5.63-2.3,6.05-5.27,1.34-.31,2.67-.66,3.97-1.05,1.86,2.36,5.19,3.08,7.87,1.53l15.08-8.71c2.68-1.55,3.73-4.81,2.6-7.6,1-.94,1.96-1.9,2.9-2.9,2.79,1.13,6.05,.09,7.6-2.59l8.71-15.08c1.54-2.67,.83-6.01-1.53-7.86,.39-1.31,.74-2.64,1.05-3.98,2.97-.42,5.27-2.95,5.27-6.04v-17.41c0-3.09-2.3-5.63-5.27-6.05h0Z"/>
      <path class="cls-12" d="M193.87,197.28c0,20.85-16.9,37.75-37.75,37.75s-37.75-16.9-37.75-37.75,16.9-37.75,37.75-37.75,37.75,16.9,37.75,37.75h0Z"/>
      <path class="cls-11" d="M174.04,197.28c0,9.89-8.02,17.92-17.92,17.92s-17.92-8.02-17.92-17.92,8.02-17.92,17.92-17.92,17.92,8.02,17.92,17.92h0Z"/>
      <path class="cls-11" d="M402.14,203.46c-.23-1-.49-1.99-.79-2.97,1.76-1.39,2.3-3.88,1.14-5.88l-6.51-11.28c-1.16-2.01-3.6-2.79-5.69-1.94-.7-.75-1.42-1.47-2.17-2.17,.84-2.09,.06-4.52-1.94-5.68l-11.28-6.51c-2-1.15-4.49-.62-5.88,1.14-.98-.29-1.97-.55-2.97-.79-.31-2.23-2.21-3.94-4.52-3.94h-13.02c-2.31,0-4.21,1.72-4.52,3.94-1,.23-1.99,.49-2.97,.79-1.39-1.76-3.88-2.3-5.88-1.14l-11.28,6.51c-2,1.16-2.78,3.6-1.94,5.68-.75,.7-1.47,1.42-2.17,2.17-2.09-.85-4.52-.07-5.68,1.94l-6.51,11.28c-1.15,2-.62,4.5,1.14,5.88-.29,.98-.55,1.97-.79,2.97-2.23,.32-3.94,2.21-3.94,4.52v13.02c0,2.31,1.72,4.2,3.94,4.52,.23,1,.49,1.99,.79,2.97-1.76,1.39-2.3,3.88-1.14,5.88l6.51,11.28c1.16,2.01,3.6,2.79,5.68,1.94,.7,.75,1.42,1.47,2.17,2.17-.84,2.09-.06,4.52,1.94,5.68l11.28,6.51c2,1.15,4.5,.62,5.88-1.15,.98,.29,1.97,.55,2.97,.79,.31,2.23,2.21,3.94,4.52,3.94h13.02c2.31,0,4.21-1.72,4.52-3.94,1-.23,1.99-.49,2.97-.79,1.39,1.76,3.88,2.3,5.88,1.15l11.28-6.51c2-1.16,2.78-3.6,1.94-5.68,.75-.7,1.47-1.42,2.17-2.17,2.09,.84,4.53,.06,5.69-1.94l6.51-11.28c1.15-2,.62-4.49-1.14-5.88,.29-.98,.55-1.97,.79-2.97,2.23-.32,3.94-2.21,3.94-4.52v-13.02c0-2.31-1.72-4.2-3.94-4.52h0Z"/>
      <path class="cls-12" d="M383.26,214.49c0,15.59-12.64,28.23-28.23,28.23s-28.23-12.64-28.23-28.23,12.64-28.23,28.23-28.23,28.23,12.64,28.23,28.23h0Z"/>
      <path class="cls-11" d="M367.29,214.49c0,6.77-5.49,12.26-12.26,12.26s-12.26-5.49-12.26-12.26,5.49-12.26,12.26-12.26,12.26,5.49,12.26,12.26h0Z"/>
      <path class="cls-3" d="M51.34,257.65c-.07,0-.07,.11,0,.11s.07-.11,0-.11h0Z"/>
      <path class="cls-3" d="M177.6,249.76c.11-.27-.33-.44-.47-.2-1.7,3-2.99,6.27-4.11,9.56,.05-.97,.11-1.95,.2-2.92,.17-1.91,.47-3.81,.58-5.73,.02-.36-.51-.41-.61-.09-.58,1.85-.81,3.78-.99,5.7-.07,.71-.12,1.43-.16,2.15-.03-.11-.06-.23-.1-.34-.33-1.02-.69-2.03-1.1-3.02-.38-.93-.82-1.91-1.44-2.7-.18-.24-.51,.03-.46,.27,.21,.99,.64,1.97,1,2.91,.38,1,.75,2.01,1.08,3.03,.36,1.09,.68,2.19,.96,3.29,0,.1,0,.2,0,.3,0,.14,.06,.24,.14,.31,.18,.73,.36,1.46,.51,2.2,.12,.58,.99,.33,.88-.24-.16-.88-.36-1.75-.57-2.62,1.31-4.07,3.02-7.93,4.64-11.87h0Zm-120.65,5.39c-.78,1.82-1.42,3.7-2.05,5.58,.36-2.33,.76-4.64,1.28-6.95,.1-.42-.46-.55-.62-.17-.81,1.92-1.38,3.98-1.71,6.06,0-.1-.02-.21-.03-.31-.14-1.28-.33-2.56-.57-3.83-.5-2.61-1.23-5.12-2.22-7.59-.27-.67-1.35-.41-1.11,.3,.8,2.41,1.47,4.89,1.97,7.39,.25,1.23,.45,2.48,.61,3.73,.16,1.24,.12,2.62,.46,3.81,.13,.45,.87,.5,.96,0,0-.03,0-.07,.01-.1,.06,.03,.13,.03,.19,.03,.04,.33,.6,.42,.73,.03,.89-2.57,1.89-5.14,2.59-7.78,.08-.29-.37-.5-.5-.21h0Zm288.74,1.7c-.34,1.52-1.41,7.22-1.52,7.91-.1,.61-1,.34-.92-.25,.11-.81,.25-1.61,.38-2.41-.03-.04-.07-.1-.09-.16-.45-1.52-.94-3.02-1.5-4.5-.55-1.48-1.17-2.92-1.67-4.42-.1-.32,.36-.49,.52-.22,.82,1.36,1.43,2.83,1.99,4.32,.1,.26,.18,.52,.28,.78-.4-2.09-.82-4.18-1.1-6.29-.04-.31,.36-.43,.48-.13,.86,2.18,1.38,4.49,1.76,6.82,.11-.58,.21-1.16,.33-1.74,.53-2.54,1.01-5.22,2.16-7.57,.13-.26,.59-.14,.56,.16-.25,2.61-1.09,5.15-1.67,7.7h0Z"/>
      <polygon class="cls-3" points="196.23 40.64 196 40.68 195.97 40.64 196.23 40.64 196.23 40.64"/>
    </g>
  </g>
</svg>