<svg width="470" height="470" viewBox="0 0 470 470" fill="none" xmlns="http://www.w3.org/2000/svg">
<path d="M352.136 352.135C416.962 287.309 416.962 182.205 352.136 117.378C287.309 52.5518 182.205 52.5518 117.379 117.378C52.5522 182.205 52.5522 287.309 117.379 352.135C182.205 416.962 287.309 416.962 352.136 352.135Z" fill="#231F20"/>
<path d="M320.662 278.596V234.496H274.562V211.796C274.562 189.296 284.662 178.096 304.962 178.096C312.162 178.096 319.762 179.696 327.862 182.896V136.396C319.762 133.796 309.562 132.596 297.062 132.596C272.663 132.596 252.962 139.496 237.962 153.296C222.962 167.096 215.462 185.496 215.462 208.596V234.596H181.562V278.696H215.462V399.596C221.962 400.396 228.462 400.896 235.162 400.896C248.762 400.896 261.962 399.196 274.562 395.996V278.596H320.662Z" fill="white"/>
</svg>
