<?xml version="1.0" encoding="utf-8"?>
<!-- Generator: Adobe Illustrator 28.0.0, SVG Export Plug-In . SVG Version: 6.00 Build 0)  -->
<svg version="1.1" id="Layer_1" xmlns="http://www.w3.org/2000/svg" xmlns:xlink="http://www.w3.org/1999/xlink" x="0px" y="0px"
	 viewBox="0 0 1146.9 826.9" style="enable-background:new 0 0 1146.9 826.9;" xml:space="preserve">
<style type="text/css">
	.st0{fill:#231F20;}
	.st1{fill:#FFFFFF;}
</style>
<g>
	
		<ellipse transform="matrix(0.7071 -0.7071 0.7071 0.7071 -102.5277 528.6326)" class="st0" cx="586.9" cy="388.1" rx="166" ry="166"/>
	<path class="st1" d="M672.8,431.9v-44.1h-46.1v-22.7c0-22.5,10.1-33.7,30.4-33.7c7.2,0,14.8,1.6,22.9,4.8v-46.5
		c-8.1-2.6-18.3-3.8-30.8-3.8c-24.4,0-44.1,6.9-59.1,20.7c-15,13.8-22.5,32.2-22.5,55.3v26h-33.9v44.1h33.9v120.9
		c6.5,0.8,13,1.3,19.7,1.3c13.6,0,26.8-1.7,39.4-4.9V431.9H672.8z"/>
</g>
<g>
	<ellipse transform="matrix(0.7071 -0.7071 0.7071 0.7071 163.2669 1620.16)" class="st0" cx="2037.3" cy="613" rx="166" ry="166"/>
	<g>
		<circle class="st1" cx="2089.9" cy="560.8" r="14.1"/>
		<g>
			<path class="st1" d="M2037.7,560.8c-28.8,0-52.2,23.4-52.2,52.2c0,28.8,23.4,52.2,52.2,52.2c28.8,0,52.2-23.4,52.2-52.2
				C2089.9,584.2,2066.5,560.8,2037.7,560.8z M2037.7,646.2c-18.3,0-33.2-14.9-33.2-33.2s14.9-33.2,33.2-33.2
				c18.3,0,33.2,14.9,33.2,33.2S2056,646.2,2037.7,646.2z"/>
		</g>
		<g>
			<path class="st1" d="M2080.1,513.1h-84.9c-31.7,0-57.4,25.7-57.4,57.4v84.9c0,31.7,25.7,57.4,57.4,57.4h84.9
				c31.7,0,57.4-25.7,57.4-57.4v-84.9C2137.6,538.8,2111.9,513.1,2080.1,513.1z M2118.2,655.8c0,20.8-16.9,37.7-37.7,37.7h-85.6
				c-20.8,0-37.7-16.9-37.7-37.7v-85.6c0-20.8,16.9-37.7,37.7-37.7h85.6c20.8,0,37.7,16.9,37.7,37.7V655.8z"/>
		</g>
	</g>
</g>
<g>
	
		<ellipse transform="matrix(0.7071 -0.7071 0.7071 0.7071 -1196.7087 934.9095)" class="st0" cx="530.2" cy="1912" rx="62" ry="62"/>
	<g>
		<g>
			<path class="st1" d="M530.6,1875.3c-20.1,0-36.4,16.3-36.4,36.4c0,6.3,1.6,12.2,4.4,17.4l-5.2,19.7l20.1-4.9
				c5.1,2.7,10.9,4.3,17.1,4.3c20.1,0,36.4-16.3,36.4-36.4S550.7,1875.3,530.6,1875.3z M530.5,1942.2c-5.2,0-10-1.3-14.3-3.6
				l-16.8,4.1l4.4-16.5c-2.3-4.3-3.7-9.3-3.7-14.5c0-16.8,13.6-30.4,30.4-30.4c16.8,0,30.4,13.6,30.4,30.4
				C561,1928.6,547.3,1942.2,530.5,1942.2z"/>
		</g>
		<path class="st1" d="M517.3,1894.7c5.3,0.8,7.1,4.6,7,10.2l-2.9,4c4.2,6.4,8.8,9.8,13.6,11.1l4-4.4c4.4,0.4,7.9,2,9.4,6.8
			C545.3,1943.5,495.8,1911.8,517.3,1894.7z"/>
	</g>
</g>
<g>
	<ellipse transform="matrix(0.9881 -0.1539 0.1539 0.9881 -286.155 127.0205)" class="st0" cx="677.4" cy="1912" rx="62" ry="62"/>
	<g>
		<path class="st1" d="M706.6,1884.2c-19.4-1.9-38.8-1.9-58.3,0c-5.9,0-10.7,4.8-10.7,10.7v33.7c0,5.9,4.8,10.7,10.7,10.7
			c19.4,1.9,38.8,1.9,58.3,0c5.9,0,10.7-4.8,10.7-10.7v-33.7C717.3,1888.9,712.5,1884.2,706.6,1884.2z M666.8,1924.3v-25.2
			l21.3,13.6L666.8,1924.3z"/>
	</g>
</g>
<g>
	<path class="st0" d="M579.9,1767.1h-99.5c-6.8,0-12.3-5.5-12.3-12.3v-99.5c0-6.8,5.5-12.3,12.3-12.3h99.5c6.8,0,12.3,5.5,12.3,12.3
		v99.5C592.2,1761.6,586.7,1767.1,579.9,1767.1z"/>
	<g>
		<g>
			<g>
				<path class="st1" d="M530.6,1668.3c-20.1,0-36.4,16.3-36.4,36.4c0,6.3,1.6,12.2,4.4,17.4l-5.2,19.7l20.1-4.9
					c5.1,2.7,10.9,4.3,17.1,4.3c20.1,0,36.4-16.3,36.4-36.4S550.7,1668.3,530.6,1668.3z M530.5,1735.3c-5.2,0-10-1.3-14.3-3.6
					l-16.8,4.1l4.4-16.5c-2.3-4.3-3.7-9.3-3.7-14.5c0-16.8,13.6-30.4,30.4-30.4c16.8,0,30.4,13.6,30.4,30.4
					S547.3,1735.3,530.5,1735.3z"/>
			</g>
			<path class="st1" d="M517.3,1687.7c5.3,0.8,7.1,4.6,7,10.2l-2.9,4c4.2,6.4,8.8,9.8,13.6,11.1l4-4.4c4.4,0.4,7.9,2,9.4,6.8
				C545.3,1736.5,495.8,1704.8,517.3,1687.7z"/>
		</g>
	</g>
</g>
<g>
	<path class="st0" d="M727.2,1767.1h-99.5c-6.8,0-12.3-5.5-12.3-12.3v-99.5c0-6.8,5.5-12.3,12.3-12.3h99.5c6.8,0,12.3,5.5,12.3,12.3
		v99.5C739.5,1761.6,734,1767.1,727.2,1767.1z"/>
	<g>
		<g>
			<path class="st1" d="M706.6,1677.2c-19.4-1.9-38.8-1.9-58.3,0c-5.9,0-10.7,4.8-10.7,10.7v33.7c0,5.9,4.8,10.7,10.7,10.7
				c19.4,1.9,38.8,1.9,58.3,0c5.9,0,10.7-4.8,10.7-10.7v-33.7C717.3,1682,712.5,1677.2,706.6,1677.2z M666.8,1717.4v-25.2l21.3,13.6
				L666.8,1717.4z"/>
		</g>
	</g>
</g>
<rect x="173.6" y="1436.1" class="st0" width="124.1" height="124.1"/>
<g>
	<path class="st1" d="M267.8,1514.6v-16.5h-17.2v-8.5c0-8.4,3.8-12.6,11.4-12.6c2.7,0,5.5,0.6,8.6,1.8v-17.4c-3-1-6.8-1.4-11.5-1.4
		c-9.1,0-16.5,2.6-22.1,7.7c-5.6,5.2-8.4,12-8.4,20.7v9.7h-12.7v16.5h12.7v45.2c2.4,0.3,4.9,0.5,7.4,0.5c5.1,0,10-0.6,14.7-1.8
		v-43.8H267.8z"/>
</g>
<rect x="320.9" y="1436.1" class="st0" width="124.1" height="124.1"/>
<g>
	<g>
		<path class="st1" d="M407.8,1478.7c0,2.9-2.4,5.3-5.3,5.3c-2.9,0-5.3-2.4-5.3-5.3c0-2.9,2.4-5.3,5.3-5.3
			C405.5,1473.4,407.8,1475.7,407.8,1478.7z"/>
		<g>
			<path class="st1" d="M383,1478.7c-10.8,0-19.5,8.7-19.5,19.5s8.7,19.5,19.5,19.5c10.8,0,19.5-8.7,19.5-19.5
				S393.8,1478.7,383,1478.7z M383,1510.6c-6.9,0-12.4-5.6-12.4-12.4s5.6-12.4,12.4-12.4c6.9,0,12.4,5.6,12.4,12.4
				S389.9,1510.6,383,1510.6z"/>
		</g>
		<g>
			<path class="st1" d="M398.9,1460.9h-31.7c-11.8,0-21.5,9.6-21.5,21.5v31.7c0,11.8,9.6,21.5,21.5,21.5h31.7
				c11.8,0,21.5-9.6,21.5-21.5v-31.7C420.4,1470.5,410.8,1460.9,398.9,1460.9z M413.1,1514.2c0,7.8-6.3,14.1-14.1,14.1h-32
				c-7.8,0-14.1-6.3-14.1-14.1v-32c0-7.8,6.3-14.1,14.1-14.1h32c7.8,0,14.1,6.3,14.1,14.1V1514.2z"/>
		</g>
	</g>
</g>
<rect x="468.2" y="1436.1" class="st0" width="124.1" height="124.1"/>
<g>
	<g>
		<g>
			<path class="st1" d="M530.6,1461.4c-20.1,0-36.4,16.3-36.4,36.4c0,6.3,1.6,12.2,4.4,17.4l-5.2,19.7l20.1-4.9
				c5.1,2.7,10.9,4.3,17.1,4.3c20.1,0,36.4-16.3,36.4-36.4C567,1477.7,550.7,1461.4,530.6,1461.4z M530.5,1528.3
				c-5.2,0-10-1.3-14.3-3.6l-16.8,4.1l4.4-16.5c-2.3-4.3-3.7-9.3-3.7-14.5c0-16.8,13.6-30.4,30.4-30.4c16.8,0,30.4,13.6,30.4,30.4
				C561,1514.7,547.3,1528.3,530.5,1528.3z"/>
		</g>
		<path class="st1" d="M517.3,1480.8c5.3,0.8,7.1,4.6,7,10.2l-2.9,4c4.2,6.4,8.8,9.8,13.6,11.1l4-4.4c4.4,0.4,7.9,2,9.4,6.8
			C545.3,1529.6,495.8,1497.9,517.3,1480.8z"/>
	</g>
</g>
<rect x="615.4" y="1436.1" class="st0" width="124.1" height="124.1"/>
<g>
	<g>
		<path class="st1" d="M706.6,1470.3c-19.4-1.9-38.8-1.9-58.3,0c-5.9,0-10.7,4.8-10.7,10.7v33.7c0,5.9,4.8,10.7,10.7,10.7
			c19.4,1.9,38.8,1.9,58.3,0c5.9,0,10.7-4.8,10.7-10.7V1481C717.3,1475.1,712.5,1470.3,706.6,1470.3z M666.8,1510.5v-25.2l21.3,13.6
			L666.8,1510.5z"/>
	</g>
</g>
<path class="st0" d="M235.6,2596.2c-35,0-63.4-28.5-63.4-63.4c0-35,28.5-63.4,63.4-63.4c35,0,63.4,28.5,63.4,63.4
	C299.1,2567.8,270.6,2596.2,235.6,2596.2z M235.6,2472.2c-33.4,0-60.6,27.2-60.6,60.6c0,33.4,27.2,60.6,60.6,60.6
	c33.4,0,60.6-27.2,60.6-60.6C296.3,2499.4,269.1,2472.2,235.6,2472.2z"/>
<path class="st0" d="M267.8,2549.2v-16.5h-17.2v-8.5c0-8.4,3.8-12.6,11.4-12.6c2.7,0,5.5,0.6,8.6,1.8V2496c-3-1-6.8-1.4-11.5-1.4
	c-9.1,0-16.5,2.6-22.1,7.7c-5.6,5.2-8.4,12-8.4,20.7v9.7h-12.7v16.5h12.7v45.2c2.4,0.3,4.9,0.5,7.4,0.5c5.1,0,10-0.6,14.7-1.8v-43.8
	H267.8z"/>
<path class="st0" d="M382.9,2596.2c-35,0-63.4-28.5-63.4-63.4c0-35,28.5-63.4,63.4-63.4c35,0,63.4,28.5,63.4,63.4
	C446.4,2567.8,417.9,2596.2,382.9,2596.2z M382.9,2472.2c-33.4,0-60.6,27.2-60.6,60.6c0,33.4,27.2,60.6,60.6,60.6
	c33.4,0,60.6-27.2,60.6-60.6C443.5,2499.4,416.3,2472.2,382.9,2472.2z"/>
<g>
	<path class="st0" d="M407.8,2513.3c0,2.9-2.4,5.3-5.3,5.3c-2.9,0-5.3-2.4-5.3-5.3s2.4-5.3,5.3-5.3
		C405.5,2508,407.8,2510.4,407.8,2513.3z"/>
	<g>
		<path class="st0" d="M383,2513.3c-10.8,0-19.5,8.7-19.5,19.5s8.7,19.5,19.5,19.5c10.8,0,19.5-8.7,19.5-19.5
			S393.8,2513.3,383,2513.3z M383,2545.2c-6.9,0-12.4-5.6-12.4-12.4s5.6-12.4,12.4-12.4s12.4,5.6,12.4,12.4S389.9,2545.2,383,2545.2
			z"/>
	</g>
	<g>
		<path class="st0" d="M398.9,2495.5h-31.7c-11.8,0-21.5,9.6-21.5,21.5v31.7c0,11.8,9.6,21.5,21.5,21.5h31.7
			c11.8,0,21.5-9.6,21.5-21.5v-31.7C420.4,2505.1,410.8,2495.5,398.9,2495.5z M413.1,2548.8c0,7.8-6.3,14.1-14.1,14.1h-32
			c-7.8,0-14.1-6.3-14.1-14.1v-32c0-7.8,6.3-14.1,14.1-14.1h32c7.8,0,14.1,6.3,14.1,14.1V2548.8z"/>
	</g>
</g>
<path class="st0" d="M530.2,2596.2c-35,0-63.4-28.5-63.4-63.4c0-35,28.5-63.4,63.4-63.4c35,0,63.4,28.5,63.4,63.4
	C593.6,2567.8,565.2,2596.2,530.2,2596.2z M530.2,2472.2c-33.4,0-60.6,27.2-60.6,60.6c0,33.4,27.2,60.6,60.6,60.6
	c33.4,0,60.6-27.2,60.6-60.6C590.8,2499.4,563.6,2472.2,530.2,2472.2z"/>
<g>
	<g>
		<path class="st0" d="M530.6,2496c-20.1,0-36.4,16.3-36.4,36.4c0,6.3,1.6,12.2,4.4,17.4l-5.2,19.7l20.1-4.9
			c5.1,2.7,10.9,4.3,17.1,4.3c20.1,0,36.4-16.3,36.4-36.4C567,2512.3,550.7,2496,530.6,2496z M530.5,2563c-5.2,0-10-1.3-14.3-3.6
			l-16.8,4.1l4.4-16.5c-2.3-4.3-3.7-9.3-3.7-14.5c0-16.8,13.6-30.4,30.4-30.4c16.8,0,30.4,13.6,30.4,30.4S547.3,2563,530.5,2563z"/>
	</g>
	<path class="st0" d="M517.3,2515.4c5.3,0.8,7.1,4.6,7,10.2l-2.9,4c4.2,6.4,8.8,9.8,13.6,11.1l4-4.4c4.4,0.4,7.9,2,9.4,6.8
		C545.3,2564.2,495.8,2532.5,517.3,2515.4z"/>
</g>
<path class="st0" d="M677.4,2596.2c-35,0-63.4-28.5-63.4-63.4c0-35,28.5-63.4,63.4-63.4c35,0,63.4,28.5,63.4,63.4
	C740.9,2567.8,712.4,2596.2,677.4,2596.2z M677.4,2472.2c-33.4,0-60.6,27.2-60.6,60.6c0,33.4,27.2,60.6,60.6,60.6
	c33.4,0,60.6-27.2,60.6-60.6C738.1,2499.4,710.9,2472.2,677.4,2472.2z"/>
<g>
	<path class="st0" d="M706.6,2504.9c-19.4-1.9-38.8-1.9-58.3,0c-5.9,0-10.7,4.8-10.7,10.7v33.7c0,5.9,4.8,10.7,10.7,10.7
		c19.4,1.9,38.8,1.9,58.3,0c5.9,0,10.7-4.8,10.7-10.7v-33.7C717.3,2509.7,712.5,2504.9,706.6,2504.9z M666.8,2545.1v-25.2l21.3,13.6
		L666.8,2545.1z"/>
</g>
<path class="st0" d="M267.8,2135.3v-16.5h-17.2v-8.5c0-8.4,3.8-12.6,11.4-12.6c2.7,0,5.5,0.6,8.6,1.8v-17.4c-3-1-6.8-1.4-11.5-1.4
	c-9.1,0-16.5,2.6-22.1,7.7c-5.6,5.2-8.4,12-8.4,20.7v9.7h-12.7v16.5h12.7v45.2c2.4,0.3,4.9,0.5,7.4,0.5c5.1,0,10-0.6,14.7-1.8v-43.8
	H267.8z"/>
<path class="st0" d="M446.4,2182.4H319.5v-126.9h126.9V2182.4z M322.3,2179.5h121.2v-121.2H322.3V2179.5z"/>
<g>
	<path class="st0" d="M407.8,2099.4c0,2.9-2.4,5.3-5.3,5.3c-2.9,0-5.3-2.4-5.3-5.3s2.4-5.3,5.3-5.3
		C405.5,2094.1,407.8,2096.5,407.8,2099.4z"/>
	<g>
		<path class="st0" d="M383,2099.4c-10.8,0-19.5,8.7-19.5,19.5c0,10.8,8.7,19.5,19.5,19.5c10.8,0,19.5-8.7,19.5-19.5
			C402.5,2108.2,393.8,2099.4,383,2099.4z M383,2131.3c-6.9,0-12.4-5.6-12.4-12.4s5.6-12.4,12.4-12.4c6.9,0,12.4,5.6,12.4,12.4
			S389.9,2131.3,383,2131.3z"/>
	</g>
	<g>
		<path class="st0" d="M398.9,2081.6h-31.7c-11.8,0-21.5,9.6-21.5,21.5v31.7c0,11.8,9.6,21.5,21.5,21.5h31.7
			c11.8,0,21.5-9.6,21.5-21.5v-31.7C420.4,2091.2,410.8,2081.6,398.9,2081.6z M413.1,2134.9c0,7.8-6.3,14.1-14.1,14.1h-32
			c-7.8,0-14.1-6.3-14.1-14.1v-32c0-7.8,6.3-14.1,14.1-14.1h32c7.8,0,14.1,6.3,14.1,14.1V2134.9z"/>
	</g>
</g>
<path class="st0" d="M593.6,2182.4H466.7v-126.9h126.9V2182.4z M469.6,2179.5h121.2v-121.2H469.6V2179.5z"/>
<g>
	<g>
		<path class="st0" d="M530.6,2082.2c-20.1,0-36.4,16.3-36.4,36.4c0,6.3,1.6,12.2,4.4,17.4l-5.2,19.7l20.1-4.9
			c5.1,2.7,10.9,4.3,17.1,4.3c20.1,0,36.4-16.3,36.4-36.4C567,2098.5,550.7,2082.2,530.6,2082.2z M530.5,2149.1
			c-5.2,0-10-1.3-14.3-3.6l-16.8,4.1l4.4-16.5c-2.3-4.3-3.7-9.3-3.7-14.5c0-16.8,13.6-30.4,30.4-30.4c16.8,0,30.4,13.6,30.4,30.4
			S547.3,2149.1,530.5,2149.1z"/>
	</g>
	<path class="st0" d="M517.3,2101.6c5.3,0.8,7.1,4.6,7,10.2l-2.9,4c4.2,6.4,8.8,9.8,13.6,11.1l4-4.4c4.4,0.4,7.9,2,9.4,6.8
		C545.3,2150.4,495.8,2118.7,517.3,2101.6z"/>
</g>
<path class="st0" d="M740.9,2182.4H614v-126.9h126.9V2182.4z M616.8,2179.5h121.2v-121.2H616.8V2179.5z"/>
<g>
	<path class="st0" d="M706.6,2091.1c-19.4-1.9-38.8-1.9-58.3,0c-5.9,0-10.7,4.8-10.7,10.7v33.7c0,5.9,4.8,10.7,10.7,10.7
		c19.4,1.9,38.8,1.9,58.3,0c5.9,0,10.7-4.8,10.7-10.7v-33.7C717.3,2095.9,712.5,2091.1,706.6,2091.1z M666.8,2131.2V2106l21.3,13.6
		L666.8,2131.2z"/>
</g>
<path class="st0" d="M299.1,2182.4H172.2v-126.9h126.9V2182.4z M175,2179.5h121.2l0-121.2H175V2179.5z"/>
<path class="st0" d="M285.4,2389.3h-99.5c-7.6,0-13.7-6.1-13.7-13.7v-99.5c0-7.6,6.1-13.7,13.7-13.7h99.5c7.6,0,13.7,6.1,13.7,13.7
	v99.5C299.1,2383.2,293,2389.3,285.4,2389.3z M185.9,2265.2c-6,0-10.9,4.9-10.9,10.9v99.5c0,6,4.9,10.9,10.9,10.9h99.5
	c6,0,10.9-4.9,10.9-10.9v-99.5c0-6-4.9-10.9-10.9-10.9H185.9z"/>
<path class="st0" d="M267.8,2342.2v-16.5h-17.2v-8.5c0-8.4,3.8-12.6,11.4-12.6c2.7,0,5.5,0.6,8.6,1.8v-17.4c-3-1-6.8-1.4-11.5-1.4
	c-9.1,0-16.5,2.6-22.1,7.7c-5.6,5.2-8.4,12-8.4,20.7v9.7h-12.7v16.5h12.7v45.2c2.4,0.3,4.9,0.5,7.4,0.5c5.1,0,10-0.6,14.7-1.8v-43.8
	H267.8z"/>
<path class="st0" d="M432.7,2389.3h-99.5c-7.6,0-13.7-6.1-13.7-13.7v-99.5c0-7.6,6.1-13.7,13.7-13.7h99.5c7.6,0,13.7,6.1,13.7,13.7
	v99.5C446.4,2383.2,440.2,2389.3,432.7,2389.3z M333.2,2265.2c-6,0-10.9,4.9-10.9,10.9v99.5c0,6,4.9,10.9,10.9,10.9h99.5
	c6,0,10.9-4.9,10.9-10.9v-99.5c0-6-4.9-10.9-10.9-10.9H333.2z"/>
<g>
	<path class="st0" d="M407.8,2306.4c0,2.9-2.4,5.3-5.3,5.3c-2.9,0-5.3-2.4-5.3-5.3c0-2.9,2.4-5.3,5.3-5.3
		C405.5,2301.1,407.8,2303.4,407.8,2306.4z"/>
	<g>
		<path class="st0" d="M383,2306.4c-10.8,0-19.5,8.7-19.5,19.5c0,10.8,8.7,19.5,19.5,19.5c10.8,0,19.5-8.7,19.5-19.5
			C402.5,2315.1,393.8,2306.4,383,2306.4z M383,2338.3c-6.9,0-12.4-5.6-12.4-12.4c0-6.9,5.6-12.4,12.4-12.4
			c6.9,0,12.4,5.6,12.4,12.4C395.5,2332.7,389.9,2338.3,383,2338.3z"/>
	</g>
	<g>
		<path class="st0" d="M398.9,2288.5h-31.7c-11.8,0-21.5,9.6-21.5,21.5v31.7c0,11.8,9.6,21.5,21.5,21.5h31.7
			c11.8,0,21.5-9.6,21.5-21.5V2310C420.4,2298.1,410.8,2288.5,398.9,2288.5z M413.1,2341.8c0,7.8-6.3,14.1-14.1,14.1h-32
			c-7.8,0-14.1-6.3-14.1-14.1v-32c0-7.8,6.3-14.1,14.1-14.1h32c7.8,0,14.1,6.3,14.1,14.1V2341.8z"/>
	</g>
</g>
<path class="st0" d="M579.9,2389.3h-99.5c-7.6,0-13.7-6.1-13.7-13.7v-99.5c0-7.6,6.1-13.7,13.7-13.7h99.5c7.6,0,13.7,6.1,13.7,13.7
	v99.5C593.6,2383.2,587.5,2389.3,579.9,2389.3z M480.4,2265.2c-6,0-10.9,4.9-10.9,10.9v99.5c0,6,4.9,10.9,10.9,10.9h99.5
	c6,0,10.9-4.9,10.9-10.9v-99.5c0-6-4.9-10.9-10.9-10.9H480.4z"/>
<g>
	<g>
		<path class="st0" d="M530.6,2289.1c-20.1,0-36.4,16.3-36.4,36.4c0,6.3,1.6,12.2,4.4,17.4l-5.2,19.7l20.1-4.9
			c5.1,2.7,10.9,4.3,17.1,4.3c20.1,0,36.4-16.3,36.4-36.4C567,2305.4,550.7,2289.1,530.6,2289.1z M530.5,2356
			c-5.2,0-10-1.3-14.3-3.6l-16.8,4.1l4.4-16.5c-2.3-4.3-3.7-9.3-3.7-14.5c0-16.8,13.6-30.4,30.4-30.4c16.8,0,30.4,13.6,30.4,30.4
			C561,2342.4,547.3,2356,530.5,2356z"/>
	</g>
	<path class="st0" d="M517.3,2308.5c5.3,0.8,7.1,4.6,7,10.2l-2.9,4c4.2,6.4,8.8,9.8,13.6,11.1l4-4.4c4.4,0.4,7.9,2,9.4,6.8
		C545.3,2357.3,495.8,2325.6,517.3,2308.5z"/>
</g>
<path class="st0" d="M727.2,2389.3h-99.5c-7.6,0-13.7-6.1-13.7-13.7v-99.5c0-7.6,6.1-13.7,13.7-13.7h99.5c7.6,0,13.7,6.1,13.7,13.7
	v99.5C740.9,2383.2,734.8,2389.3,727.2,2389.3z M627.7,2265.2c-6,0-10.9,4.9-10.9,10.9v99.5c0,6,4.9,10.9,10.9,10.9h99.5
	c6,0,10.9-4.9,10.9-10.9v-99.5c0-6-4.9-10.9-10.9-10.9H627.7z"/>
<g>
	<path class="st0" d="M706.6,2298c-19.4-1.9-38.8-1.9-58.3,0c-5.9,0-10.7,4.8-10.7,10.7v33.7c0,5.9,4.8,10.7,10.7,10.7
		c19.4,1.9,38.8,1.9,58.3,0c5.9,0,10.7-4.8,10.7-10.7v-33.7C717.3,2302.8,712.5,2298,706.6,2298z M666.8,2338.1v-25.2l21.3,13.6
		L666.8,2338.1z"/>
</g>
</svg>
