<?xml version="1.0" encoding="utf-8"?>
<!-- Generator: Adobe Illustrator 28.0.0, SVG Export Plug-In . SVG Version: 6.00 Build 0)  -->
<svg version="1.1" id="Layer_1" xmlns="http://www.w3.org/2000/svg" xmlns:xlink="http://www.w3.org/1999/xlink" x="0px" y="0px"
	 viewBox="0 0 800 800" style="enable-background:new 0 0 800 800;" xml:space="preserve">
<style type="text/css">
	.st0{fill:url(#SVGID_1_);}
	.st1{fill:url(#SVGID_00000183952812150300340410000012120510706618274476_);}
	.st2{fill:url(#SVGID_00000103943544650549630260000003625026956198173879_);}
	.st3{fill:#FFFFFF;}
	.st4{fill-rule:evenodd;clip-rule:evenodd;fill:#FFFFFF;}
	.st5{fill:#1877F2;}
</style>
<path class="st5" d="M199.6,50h406.2c81.1,0,146.9,65.8,146.9,146.9v406.2c0,81.1-65.8,146.9-146.9,146.9H199.6
	c-81.1,0-146.9-65.8-146.9-146.9V196.9C52.7,115.8,118.5,50,199.6,50z"/>
<path class="st3" d="M552.3,506.6L568.7,400H466.4v-69.2c0-29.1,14.3-57.6,60.1-57.6H573v-90.8c0,0-42.2-7.2-82.6-7.2
	c-84.3,0-139.3,51-139.3,143.5V400h-93.7v106.6h93.7v262.2h115.3V506.6H552.3z"/>
</svg>
