<?xml version="1.0" standalone="no"?>
<!DOCTYPE svg PUBLIC "-//W3C//DTD SVG 20010904//EN"
 "http://www.w3.org/TR/2001/REC-SVG-20010904/DTD/svg10.dtd">
<svg version="1.0" xmlns="http://www.w3.org/2000/svg"
 width="512.000000pt" height="512.000000pt" viewBox="0 0 512.000000 512.000000"
 preserveAspectRatio="xMidYMid meet">

<g transform="translate(0.000000,512.000000) scale(0.100000,-0.100000)"
fill="#000000" stroke="none">
<path d="M1640 5105 c-452 -86 -779 -437 -830 -890 -19 -175 17 -390 91 -538
78 -156 102 -181 858 -940 405 -406 749 -745 765 -754 17 -9 39 -12 55 -8 34
8 1450 1420 1532 1529 383 504 208 1235 -361 1512 -219 106 -458 130 -695 70
-162 -42 -285 -110 -449 -250 l-46 -38 -46 38 c-164 139 -287 208 -449 250
-125 32 -312 41 -425 19z m405 -200 c149 -44 241 -101 380 -236 89 -87 121
-104 163 -88 15 5 63 45 107 88 139 135 229 191 380 237 79 24 107 28 230 28
116 0 153 -3 218 -22 289 -83 512 -309 588 -597 30 -112 30 -298 0 -410 -32
-124 -99 -248 -190 -351 -44 -49 -367 -377 -720 -729 l-641 -640 -641 640
c-353 352 -676 680 -720 729 -91 103 -158 227 -190 351 -30 112 -30 298 0 410
84 318 343 556 669 615 89 17 269 4 367 -25z"/>
<path d="M390 3889 c-72 -9 -121 -31 -171 -76 -49 -44 -84 -103 -98 -163 -12
-49 -101 -1315 -101 -1433 0 -89 28 -203 69 -286 17 -33 229 -324 471 -646
l441 -585 -26 -285 c-32 -362 -32 -350 4 -386 l29 -29 661 0 c395 0 670 4 685
10 57 21 55 -1 62 721 7 720 6 746 -46 889 -15 42 -47 108 -71 147 -51 83
-831 1027 -886 1072 -78 64 -209 79 -299 33 -49 -25 -108 -84 -131 -132 -27
-54 -30 -177 -6 -231 11 -24 138 -197 282 -384 l262 -340 -31 -9 c-45 -13
-144 8 -199 42 -35 21 -105 103 -296 347 l-250 319 0 591 0 590 -27 50 c-47
91 -147 164 -238 177 -19 2 -60 1 -90 -3z m123 -201 c62 -44 60 -23 56 -673
l-4 -591 245 -314 c135 -173 263 -335 285 -359 141 -154 364 -198 556 -110 78
36 99 58 99 105 0 37 15 16 -330 464 -163 212 -276 367 -280 386 -21 93 80
158 158 102 27 -20 734 -864 815 -973 16 -22 45 -71 63 -110 62 -130 64 -147
64 -595 0 -223 -3 -503 -7 -623 l-6 -217 -544 0 -543 0 0 38 c0 20 9 134 20
252 11 118 20 232 20 253 0 34 -41 92 -454 641 -250 332 -463 621 -474 642
-33 65 -52 144 -52 217 0 126 90 1381 101 1409 14 35 39 57 86 74 44 16 87 10
126 -18z"/>
<path d="M4612 3884 c-29 -8 -62 -19 -74 -25 -42 -23 -110 -95 -136 -144 l-27
-50 0 -590 0 -591 -250 -319 c-191 -244 -261 -326 -296 -347 -55 -34 -154 -55
-199 -42 l-31 9 262 340 c144 187 271 360 281 384 25 54 22 176 -5 231 -23 48
-82 107 -131 132 -90 46 -221 31 -299 -33 -55 -45 -835 -989 -886 -1072 -24
-39 -56 -105 -71 -147 -52 -143 -53 -169 -46 -889 7 -722 5 -700 62 -721 15
-6 290 -10 685 -10 l661 0 29 29 c36 36 36 24 4 386 l-26 285 441 585 c242
322 454 613 471 646 41 83 69 197 69 286 0 118 -89 1384 -101 1433 -40 169
-218 277 -387 234z m138 -186 c79 -40 73 -9 124 -744 25 -364 46 -690 46 -725
0 -73 -20 -160 -51 -221 -11 -22 -225 -312 -475 -644 -413 -549 -454 -607
-454 -641 0 -21 9 -135 20 -253 11 -118 20 -232 20 -252 l0 -38 -543 0 -544 0
-6 217 c-4 120 -7 400 -7 623 0 448 2 465 64 595 18 39 47 88 63 110 81 109
788 953 815 973 78 56 179 -9 158 -102 -4 -19 -117 -174 -280 -386 -345 -448
-330 -427 -330 -464 0 -47 21 -69 97 -104 195 -89 416 -46 558 109 22 24 150
186 285 359 l245 314 -4 591 c-4 650 -6 629 56 673 52 37 85 39 143 10z"/>
</g>
</svg>
