<svg width="470" height="470" viewBox="0 0 470 470" fill="none" xmlns="http://www.w3.org/2000/svg">
<path d="M352.136 352.135C416.962 287.309 416.962 182.205 352.136 117.378C287.309 52.5518 182.205 52.5518 117.379 117.378C52.5522 182.205 52.5522 287.309 117.379 352.135C182.205 416.962 287.309 416.962 352.136 352.135Z" fill="#231F20"/>
<path d="M287.329 196.658C295.116 196.658 301.429 190.345 301.429 182.558C301.429 174.771 295.116 168.458 287.329 168.458C279.541 168.458 273.229 174.771 273.229 182.558C273.229 190.345 279.541 196.658 287.329 196.658Z" fill="white"/>
<path d="M235.128 182.559C206.328 182.559 182.928 205.959 182.928 234.759C182.928 263.559 206.328 286.959 235.128 286.959C263.928 286.959 287.328 263.559 287.328 234.759C287.328 205.859 263.928 182.559 235.128 182.559ZM235.128 267.959C216.828 267.959 201.928 253.059 201.928 234.759C201.928 216.459 216.828 201.559 235.128 201.559C253.428 201.559 268.328 216.459 268.328 234.759C268.328 253.059 253.428 267.959 235.128 267.959Z" fill="white"/>
<path d="M277.529 134.858H192.629C160.929 134.858 135.229 160.558 135.229 192.258V277.158C135.229 308.858 160.929 334.558 192.629 334.558H277.529C309.229 334.558 334.929 308.858 334.929 277.158V192.258C334.929 160.558 309.229 134.858 277.529 134.858ZM315.629 277.558C315.629 298.358 298.729 315.258 277.929 315.258H192.329C171.529 315.258 154.629 298.358 154.629 277.558V191.958C154.629 171.158 171.529 154.258 192.329 154.258H277.929C298.729 154.258 315.629 171.158 315.629 191.958V277.558Z" fill="white"/>
</svg>
