<?xml version="1.0" encoding="utf-8"?>
<!-- Generator: Adobe Illustrator 28.0.0, SVG Export Plug-In . SVG Version: 6.00 Build 0)  -->
<svg version="1.1" id="Layer_1" xmlns="http://www.w3.org/2000/svg" xmlns:xlink="http://www.w3.org/1999/xlink" x="0px" y="0px"
	 viewBox="0 0 1040.3 860.2" style="enable-background:new 0 0 1040.3 860.2;" xml:space="preserve">
<style type="text/css">
	.st0{fill:#231F20;}
	.st1{fill:#FFFFFF;}
</style>
<g>
	
		<ellipse transform="matrix(0.7071 -0.7071 0.7071 0.7071 -144.9627 515.9413)" class="st0" cx="550.3" cy="433" rx="166" ry="166"/>
	<g>
		<circle class="st1" cx="602.9" cy="380.8" r="14.1"/>
		<g>
			<path class="st1" d="M550.7,380.8c-28.8,0-52.2,23.4-52.2,52.2c0,28.8,23.4,52.2,52.2,52.2c28.8,0,52.2-23.4,52.2-52.2
				C602.9,404.1,579.5,380.8,550.7,380.8z M550.7,466.2c-18.3,0-33.2-14.9-33.2-33.2c0-18.3,14.9-33.2,33.2-33.2
				c18.3,0,33.2,14.9,33.2,33.2C583.9,451.3,569,466.2,550.7,466.2z"/>
		</g>
		<g>
			<path class="st1" d="M593.1,333.1h-84.9c-31.7,0-57.4,25.7-57.4,57.4v84.9c0,31.7,25.7,57.4,57.4,57.4h84.9
				c31.7,0,57.4-25.7,57.4-57.4v-84.9C650.5,358.8,624.8,333.1,593.1,333.1z M631.2,475.8c0,20.8-16.9,37.7-37.7,37.7h-85.6
				c-20.8,0-37.7-16.9-37.7-37.7v-85.6c0-20.8,16.9-37.7,37.7-37.7h85.6c20.8,0,37.7,16.9,37.7,37.7V475.8z"/>
		</g>
	</g>
</g>
</svg>
