<?xml version="1.0" encoding="utf-8"?>
<!-- Generator: Adobe Illustrator 28.0.0, SVG Export Plug-In . SVG Version: 6.00 Build 0)  -->
<svg version="1.1" id="Layer_1" xmlns="http://www.w3.org/2000/svg" xmlns:xlink="http://www.w3.org/1999/xlink" x="0px" y="0px"
	 viewBox="0 0 1773.8 1747.1" style="enable-background:new 0 0 1773.8 1747.1;" xml:space="preserve">
<style type="text/css">
	.st0{fill:#62AFFC;}
	.st1{fill:#FDE556;}
	.st2{fill:none;stroke:#494949;stroke-width:25;stroke-miterlimit:10;}
	.st3{fill:#EDD24F;}
</style>
<g id="UKRAINE2">
	<g id="medicine_help">
		<g>
			<circle class="st0" cx="913.2" cy="1020.5" r="315.8"/>
			
				<ellipse transform="matrix(0.7071 -0.7071 0.7071 0.7071 -189.522 976.866)" class="st1" cx="1084.4" cy="717.2" rx="216.1" ry="216.1"/>
		</g>
		<g>
			<g>
				<path class="st2" d="M1227.7,1341.1H600.5c-2.8,0-5-2.2-5-5V919.9h637.2v416.2C1232.7,1338.8,1230.5,1341.1,1227.7,1341.1z"/>
				
					<ellipse transform="matrix(0.7071 -0.7071 0.7071 0.7071 -531.6305 977.4836)" class="st2" cx="914.1" cy="1130.5" rx="153.7" ry="153.7"/>
				<path class="st2" d="M1232.7,919.9l179.5-0.9c2.1,0,3.1,2.6,1.5,4l-181,152.6"/>
				<path class="st2" d="M588.7,919.9L409.2,919c-2.1,0-3.1,2.6-1.5,4l181,152.6"/>
			</g>
			<g>
				<path class="st2" d="M621.3,919.9V737.1c0-50.1,40.6-90.7,90.7-90.7h135.7c50.1,0,90.7,40.6,90.7,90.7v182.8"/>
				<path class="st2" d="M858,646.4H709V569H853c2.8,0,5,2.2,5,5V646.4z"/>
				<line class="st2" x1="582.3" y1="569" x2="709" y2="569"/>
			</g>
			<g>
				<path class="st2" d="M1070.1,919.2l0-268.3v-86.6c0-1.3,1-2.3,2.3-2.3l131.8,0c1.3,0,2.3,1,2.3,2.3l0,355.6"/>
				<g>
					<line class="st2" x1="1138.3" y1="646.3" x2="1070.1" y2="646.3"/>
					<line class="st2" x1="1138.3" y1="714.5" x2="1070.1" y2="714.5"/>
					<line class="st2" x1="1138.3" y1="782.8" x2="1070.1" y2="782.8"/>
					<line class="st2" x1="1138.3" y1="851" x2="1070.1" y2="851"/>
					<line class="st2" x1="1138.3" y1="919.2" x2="1070.1" y2="919.2"/>
				</g>
				<g>
					<line class="st2" x1="1165.5" y1="562" x2="1165.5" y2="452.3"/>
					<line class="st2" x1="1111.1" y1="562" x2="1111.1" y2="452.3"/>
					<line class="st2" x1="1070.1" y1="452.3" x2="1206.5" y2="452.3"/>
				</g>
			</g>
			<g>
				<path class="st2" d="M804.7,570V442c0-14.2,11.5-25.7,25.7-25.7h170.3c14.2,0,25.7,11.5,25.7,25.7v304.4"/>
				<g>
					
						<ellipse transform="matrix(0.925 -0.3801 0.3801 0.925 -117.1887 365.0647)" class="st2" cx="865.9" cy="479.3" rx="11.3" ry="11.3"/>
					
						<ellipse transform="matrix(0.2309 -0.973 0.973 0.2309 276.6169 1308.548)" class="st2" cx="966" cy="479.3" rx="11.3" ry="11.3"/>
					<circle class="st2" cx="966" cy="569.3" r="11.3"/>
					<circle class="st2" cx="966" cy="659.3" r="11.3"/>
				</g>
			</g>
			<path class="st2" d="M1006,1100.9H946c-1.3,0-2.3-1-2.3-2.3v-60.1c0-1.3-1-2.3-2.3-2.3h-54.6c-1.3,0-2.3,1-2.3,2.3v60.1
				c0,1.3-1,2.3-2.3,2.3h-60.1c-1.3,0-2.3,1-2.3,2.3v54.6c0,1.3,1,2.3,2.3,2.3h60.1c1.3,0,2.3,1,2.3,2.3v60.1c0,1.3,1,2.3,2.3,2.3
				h54.6c1.3,0,2.3-1,2.3-2.3v-60.1c0-1.3,1-2.3,2.3-2.3h60.1c1.3,0,2.3-1,2.3-2.3v-54.6C1008.3,1101.9,1007.3,1100.9,1006,1100.9z"
				/>
			<line class="st2" x1="938.4" y1="737.1" x2="1067.9" y2="737.1"/>
		</g>
	</g>
</g>
</svg>
