<?xml version="1.0" encoding="utf-8"?>
<!-- Generator: Adobe Illustrator 28.0.0, SVG Export Plug-In . SVG Version: 6.00 Build 0)  -->
<svg version="1.1" id="Layer_1" xmlns="http://www.w3.org/2000/svg" xmlns:xlink="http://www.w3.org/1999/xlink" x="0px" y="0px"
	 viewBox="0 0 1773.8 1747.1" style="enable-background:new 0 0 1773.8 1747.1;" xml:space="preserve">
<style type="text/css">
	.st0{fill:#62AFFC;}
	.st1{fill:#FDE556;}
	.st2{fill:none;stroke:#494949;stroke-width:25;stroke-miterlimit:10;}
	.st3{fill:#EDD24F;}
</style>
<g id="UKRAINE2">
	<g id="dove-peace">
		<circle class="st0" cx="945.6" cy="951.3" r="297.5"/>
		
			<ellipse transform="matrix(0.7071 -0.7071 0.7071 0.7071 -360.957 686.4341)" class="st1" cx="648.1" cy="778.9" rx="203.6" ry="203.6"/>
		<path class="st2" d="M395.4,983.5c-30.4,188,111.6,257.3,128.1,265.2c0.9,0.4,2,0.2,2.7-0.6c105.5-134.6,113.3-161.7,186.6-161.7
			c36,0,59.3,7.5,109.3,7.5c269.8,0,314.8-176.2,321.4-200.2c17.6-63.7,18.2-139.7,87.1-170.7c0,0-47.3-41-129.8-41
			c-51.4,0-120.1,29-191,69.4c3.7,8.3,7,16.4,10.1,24.5c9.4,24.8,16,48.2,20.6,68.4c11.4,50,10.6,74.7,12.1,115.1
			c-59,0-119.2,2-194.8-21.3c-27-8.3-51.5-18.8-73.8-30.8l-0.6-0.3c-66.7,52-112.5,92.4-112.5,92.4c-134.9-13.8-166-16.9-173.1-17.6
			C396.6,981.6,395.6,982.4,395.4,983.5z"/>
		<path class="st2" d="M908.1,916.5c0,0-13.6-365.1-403-373.1c-1.3,0-2.4,1.1-2.3,2.4C506,578.2,547.1,916.5,908.1,916.5z"/>
		<g>
			<path class="st2" d="M1271.9,565.1c0,0-167.9,131.2,0,284.9"/>
			<path class="st2" d="M1341,501.4l0.1-0.6l-0.7,0.1c-64,5.5-74,37.7-73.5,58.7l10.3,11C1298.3,572.6,1331,564.9,1341,501.4z"/>
			<path class="st2" d="M1148.4,555.5l-0.7,0l0.2,0.6c18.1,61.7,51.6,65.1,72.1,60.3l8.8-12.2
				C1226.6,583.3,1212.6,552.7,1148.4,555.5z"/>
			<path class="st2" d="M1310.2,746.1l0.1-0.6l-0.7,0c-64.2,2-76,33.6-76.5,54.6l9.6,11.6C1263.6,814.9,1296.8,809,1310.2,746.1z"/>
		</g>
		
			<ellipse transform="matrix(0.9239 -0.3827 0.3827 0.9239 -199.4063 481.2825)" class="st2" cx="1110.1" cy="741.9" rx="10.7" ry="10.7"/>
	</g>
</g>
</svg>
