<?xml version="1.0" encoding="utf-8"?>
<!-- Generator: Adobe Illustrator 28.0.0, SVG Export Plug-In . SVG Version: 6.00 Build 0)  -->
<svg version="1.1" id="Layer_1" xmlns="http://www.w3.org/2000/svg" xmlns:xlink="http://www.w3.org/1999/xlink" x="0px" y="0px"
	 viewBox="0 0 1773.8 1747.1" style="enable-background:new 0 0 1773.8 1747.1;" xml:space="preserve">
<style type="text/css">
	.st0{fill:#62AFFC;}
	.st1{fill:#FDE556;}
	.st2{fill:none;stroke:#494949;stroke-width:25;stroke-miterlimit:10;}
	.st3{fill:#EDD24F;}
</style>
<g id="UKRAINE2">
	<g id="food_help">
		<g>
			<circle class="st1" cx="881.2" cy="1009.1" r="320.7"/>
			
				<ellipse transform="matrix(0.7071 -0.7071 0.7071 0.7071 -186.6566 951.4196)" class="st0" cx="1055.1" cy="701" rx="219.5" ry="219.5"/>
		</g>
		<g>
			<g>
				<path class="st2" d="M582.3,910.6V772c0-49.4,32.8-85.9,38.8-85.9c103.1,0-72.8,0,105.2,0h-38.1c178.1,0,2.1,0,105.2,0
					c5.5,0,38.8,35.5,38.8,85.9v138.5"/>
				<path class="st2" d="M651.8,686.1v-64c0-2.6,2.1-4.6,4.6-4.6h106.9c2.6,0,4.6,2.1,4.6,4.6v64"/>
				<line class="st2" x1="582.5" y1="807.9" x2="832.2" y2="807.9"/>
			</g>
			<path class="st2" d="M696.8,617.5V488.2c0-3.8,3.1-6.9,6.9-6.9h29.2h314.9c3.8,0,6.9,3.1,6.9,6.9v133"/>
			<g>
				<line class="st2" x1="985.7" y1="740.9" x2="1109.9" y2="740.9"/>
				<line class="st2" x1="985.7" y1="823.9" x2="1109.9" y2="823.9"/>
				<path class="st2" d="M1182.1,906.7V758.9c0-76.1-60.1-137.7-134.3-137.7s-134.3,61.7-134.3,137.7v147.9"/>
			</g>
			<g>
				<rect x="558.5" y="906.9" class="st2" width="647.2" height="427.8"/>
				
					<ellipse transform="matrix(0.7071 -0.7071 0.7071 0.7071 -534.1391 952.0469)" class="st2" cx="882.2" cy="1120.8" rx="156.2" ry="156.2"/>
				<path class="st2" d="M878.7,1068.2c1.8,2.1,5.1,2.1,6.9,0c6.2-7.1,20.6-20.1,43.2-20.1c27.6,0,46.6,25.2,46.6,54.6
					c0,33.7-25.4,73.4-91.1,108.1c-1.4,0.7-3,0.7-4.4,0c-65.7-34.7-91.1-74.5-91.1-108.1c0-29.4,19-54.6,46.6-54.6
					C858.1,1048,872.5,1061.1,878.7,1068.2z"/>
				<path class="st2" d="M1205.8,906.9l182.3-0.9c2.2,0,3.2,2.7,1.5,4.1l-183.8,155"/>
				<path class="st2" d="M551.6,906.9L369.3,906c-2.2,0-3.2,2.7-1.5,4.1l183.8,155"/>
			</g>
		</g>
		<line class="st2" x1="752.5" y1="546.9" x2="994.4" y2="546.9"/>
		<line class="st2" x1="852.9" y1="597.1" x2="913.6" y2="597.1"/>
		<path class="st2" d="M1055.1,488.4l17.8-37.2c9.8-20.3,34.4-29,54.7-19.2l61.3,29.5c20.3,9.8,29,34.4,19.2,54.7l-68.4,142.3"/>
		<path class="st2" d="M1184.6,392.2l-30.2-14.5c-2.8-1.4-6.1,0.9-5.7,4.1l7.4,61.8c0.3,2.9,3.6,4.5,6.1,2.9l53-32.8
			c2.7-1.7,2.5-5.6-0.4-7L1184.6,392.2z"/>
	</g>
</g>
</svg>
