<svg width="673" height="779" viewBox="0 0 673 779" fill="none" xmlns="http://www.w3.org/2000/svg">
<path d="M10 199.531V198.86M10 198.86C10.0025 195.036 57.5936 173.353 94.3361 157.183C122.202 144.919 149.603 131.655 176.255 116.938V116.938C214.25 95.9573 250.654 72.2151 285.172 45.9027L330.643 11.2409C332.39 9.90917 334.801 9.87368 336.587 11.1534L440.205 85.4246L536.219 139.028L657.399 198.379C660.827 200.058 663 203.543 663 207.36V372.782C663 414.415 655.783 455.732 641.67 494.9V494.9C626.322 537.493 603.082 576.812 573.167 610.796L567.116 617.671C546.585 640.995 523.46 661.899 498.189 679.978L484.297 689.916C453.217 712.152 419.933 731.132 384.97 746.56L337.286 767.6C335.262 768.493 332.958 768.508 330.922 767.641L275.803 744.162C243.331 730.331 212.409 713.113 183.55 692.795L169.019 682.564C140.942 662.796 115.724 639.252 94.0767 612.597V612.597C65.4947 577.402 43.4205 536.884 29.2003 493.832V493.832C16.5623 455.571 10 415.168 10 374.874V201.123V198.86Z" stroke="black" stroke-width="20"/>
<path d="M72 234.932V234.386M72 234.386C72.0021 231.277 110.618 213.65 140.438 200.502C163.063 190.525 185.31 179.736 206.947 167.766V167.766C237.78 150.709 267.318 131.408 295.322 110.021L331.689 82.2477C333.437 80.9124 335.853 80.8769 337.64 82.1601L421.171 142.145L499.1 185.733L596.405 233.481C599.83 235.161 602 238.644 602 242.458V375.846C602 409.679 596.145 443.256 584.695 475.092V475.092C572.233 509.742 553.356 541.735 529.051 569.398L524.194 574.927C507.519 593.905 488.733 610.918 468.199 625.636L456.973 633.682C431.737 651.769 404.707 667.212 376.309 679.766L337.798 696.791C336.053 697.562 334.066 697.575 332.312 696.826L287.768 677.817C261.391 666.561 236.277 652.551 212.842 636.021L201.106 627.742C178.291 611.649 157.804 592.488 140.223 570.798V570.798C117.035 542.193 99.1188 509.233 87.589 474.261V474.261C77.3355 443.161 72 410.289 72 377.542V236.226V234.386Z" stroke="black" stroke-width="20"/>
<path d="M249.5 339.5C249.5 374.018 226.89 402 199 402C171.11 402 148.5 374.018 148.5 339.5C148.5 304.982 171.11 277 199 277C226.89 277 249.5 304.982 249.5 339.5ZM165.733 339.5C165.733 362.239 180.627 380.672 199 380.672C217.373 380.672 232.267 362.239 232.267 339.5C232.267 316.761 217.373 298.328 199 298.328C180.627 298.328 165.733 316.761 165.733 339.5Z" fill="#0E53B0"/>
<path d="M526.5 339.5C526.5 374.018 503.89 402 476 402C448.11 402 425.5 374.018 425.5 339.5C425.5 304.982 448.11 277 476 277C503.89 277 526.5 304.982 526.5 339.5ZM442.733 339.5C442.733 362.239 457.627 380.672 476 380.672C494.373 380.672 509.267 362.239 509.267 339.5C509.267 316.761 494.373 298.328 476 298.328C457.627 298.328 442.733 316.761 442.733 339.5Z" fill="#0E53B0"/>
<path d="M392.5 316C392.5 353.555 367.876 384 337.5 384C307.124 384 282.5 353.555 282.5 316C282.5 278.445 307.124 248 337.5 248C367.876 248 392.5 278.445 392.5 316ZM301.268 316C301.268 340.74 317.49 360.795 337.5 360.795C357.51 360.795 373.732 340.74 373.732 316C373.732 291.26 357.51 269.5 337.5 269.5C317.49 269.5 301.268 291.26 301.268 316Z" fill="#0E53B0"/>
<path d="M250.5 504.5V477.5V430.5V420.25M250.5 504.5H154C137.431 504.5 124 491.069 124 474.5V452.778C124 448.316 124.996 443.909 126.914 439.88L130.783 431.755C132.895 427.32 136.065 423.471 140.012 420.547L144.161 417.473C154.275 409.981 167.991 409.599 178.506 416.517L180 417.5L184.03 420.128C188.905 423.307 194.599 425 200.418 425H204.057C211.412 425 218.493 422.215 223.878 417.206L232.052 409.603C235.086 406.781 239.451 405.908 243.337 407.347V407.347C247.642 408.942 250.5 413.047 250.5 417.638V420.25M250.5 504.5V504.5C250.5 517.203 260.797 527.5 273.5 527.5H311H400.5C414.031 527.5 425 516.531 425 503V503M425 437L414.295 419.031C412.123 415.385 409.202 412.242 405.726 409.808L394.281 401.797C386.531 396.372 376.046 397.087 369.104 403.515V403.515C368.038 404.502 366.868 405.371 365.614 406.106L360.027 409.381C355.425 412.078 350.188 413.5 344.855 413.5H333.464C330.504 413.5 327.561 413.062 324.729 412.2L324.092 412.006C319.754 410.686 315.771 408.399 312.444 405.319L304.462 397.928C304.154 397.643 303.825 397.383 303.476 397.151V397.151C301.88 396.087 299.951 395.64 298.05 395.893L291.316 396.791C287.809 397.259 284.435 398.439 281.401 400.259L273.5 405L250.5 420.25M425 437V421.875C425 416.729 427.865 412.01 432.43 409.636V409.636C435.676 407.948 439.46 407.619 442.949 408.721L443.57 408.917C445.826 409.629 447.887 410.853 449.593 412.493L455.709 418.374C458.537 421.093 461.916 423.171 465.618 424.466V424.466C468.519 425.482 471.569 426 474.642 426H479.634C483.831 426 487.982 425.119 491.818 423.414L494.755 422.109C497.895 420.713 500.772 418.789 503.26 416.419L509.255 410.709C509.751 410.237 510.286 409.809 510.856 409.429V409.429C514.872 406.752 520.111 406.776 524.103 409.49L528.661 412.59C529.552 413.196 530.393 413.872 531.175 414.614L537.716 420.81C538.904 421.935 539.997 423.155 540.985 424.457L544.401 428.96C548.358 434.176 550.5 440.544 550.5 447.092V459.5V481V482.5C550.5 493.822 541.322 503 530 503V503H506H477H451H425M425 437V503" stroke="#0E53B0" stroke-width="20"/>
<line x1="166" y1="560" x2="166" y2="585" stroke="black" stroke-width="12"/>
<line x1="223" y1="560" x2="223" y2="585" stroke="black" stroke-width="12"/>
<line x1="277" y1="560" x2="277" y2="585" stroke="black" stroke-width="12"/>
<line x1="333" y1="560" x2="333" y2="585" stroke="black" stroke-width="12"/>
<line x1="390" y1="560" x2="390" y2="585" stroke="black" stroke-width="12"/>
<line x1="447" y1="560" x2="447" y2="585" stroke="black" stroke-width="12"/>
<line x1="502" y1="560" x2="502" y2="585" stroke="black" stroke-width="12"/>
</svg>
