<?xml version="1.0" standalone="no"?>
<!DOCTYPE svg PUBLIC "-//W3C//DTD SVG 20010904//EN"
 "http://www.w3.org/TR/2001/REC-SVG-20010904/DTD/svg10.dtd">
<svg version="1.0" xmlns="http://www.w3.org/2000/svg"
 width="25px" height="25px" viewBox="0 0 600.000000 600.000000"
 preserveAspectRatio="xMidYMid meet">

<g transform="translate(0.000000,600.000000) scale(0.100000,-0.100000)"
fill="#000000" stroke="none">
<path d="M1376 5604 c-431 -78 -797 -396 -936 -812 -69 -208 -65 -101 -65
-1792 0 -1431 1 -1530 18 -1614 27 -133 64 -240 118 -348 174 -339 488 -571
871 -643 74 -14 260 -15 1653 -13 l1570 3 96 26 c448 124 764 440 887 886 l27
98 3 1560 c2 1389 1 1570 -13 1655 -73 437 -388 806 -810 948 -190 65 -115 62
-1805 61 -1283 -1 -1548 -3 -1614 -15z m3259 -387 c292 -92 490 -290 582 -582
l28 -90 0 -1540 c0 -1732 6 -1586 -76 -1763 -107 -232 -295 -392 -546 -464
l-78 -23 -1545 0 -1545 0 -77 22 c-102 30 -174 62 -250 114 -174 118 -291 280
-351 487 l-22 77 0 1545 0 1545 23 78 c93 322 343 551 667 612 56 11 370 13
1585 12 l1515 -2 90 -28z"/>
<path d="M4390 4857 c-100 -35 -185 -109 -230 -202 -22 -43 -25 -64 -25 -155
0 -94 3 -111 27 -160 35 -71 107 -143 178 -178 49 -24 66 -27 160 -27 91 0
112 3 155 25 62 30 137 99 168 154 81 145 55 335 -61 449 -71 70 -148 101
-252 104 -47 1 -101 -4 -120 -10z"/>
<path d="M2788 4295 c-161 -26 -276 -64 -431 -143 -314 -158 -567 -448 -681
-778 -236 -681 67 -1419 709 -1729 219 -106 363 -138 615 -138 196 0 305 17
467 74 428 151 757 503 882 942 40 139 52 226 52 383 0 156 -19 281 -61 417
-154 488 -552 850 -1055 959 -121 26 -377 33 -497 13z m312 -365 c434 -46 788
-349 897 -769 124 -481 -114 -979 -569 -1190 -163 -76 -340 -106 -526 -89
-132 12 -227 39 -357 103 -339 166 -553 490 -572 866 -29 584 412 1061 1007
1088 14 0 68 -4 120 -9z"/>
</g>
</svg>
